<?xml version="1.0" encoding="utf-8" standalone="no"?>
<!DOCTYPE svg PUBLIC "-//W3C//DTD SVG 1.1//EN"
  "http://www.w3.org/Graphics/SVG/1.1/DTD/svg11.dtd">
<!-- Created with matplotlib (http://matplotlib.org/) -->
<svg height="288pt" version="1.1" viewBox="0 0 432 288" width="432pt" xmlns="http://www.w3.org/2000/svg" xmlns:xlink="http://www.w3.org/1999/xlink">
 <defs>
  <style type="text/css">
*{stroke-linecap:butt;stroke-linejoin:round;}
  </style>
 </defs>
 <g id="figure_1">
  <g id="patch_1">
   <path d="M 0 288 
L 432 288 
L 432 0 
L 0 0 
z
" style="fill:#ffffff;"/>
  </g>
  <g id="axes_1">
   <g id="patch_2">
    <path d="M 54 252 
L 388.8 252 
L 388.8 34.56 
L 54 34.56 
z
" style="fill:#ffffff;"/>
   </g>
   <g id="matplotlib.axis_1">
    <g id="xtick_1">
     <g id="line2d_1">
      <defs>
       <path d="M 0 0 
L 0 3.5 
" id="mf3fa450c5e" style="stroke:#000000;stroke-width:0.8;"/>
      </defs>
      <g>
       <use style="stroke:#000000;stroke-width:0.8;" x="137.7" xlink:href="#mf3fa450c5e" y="252"/>
      </g>
     </g>
     <g id="text_1">
      <!-- Full Measurement -->
      <defs>
       <path d="M 9.8125 72.90625 
L 51.703125 72.90625 
L 51.703125 64.59375 
L 19.671875 64.59375 
L 19.671875 43.109375 
L 48.578125 43.109375 
L 48.578125 34.8125 
L 19.671875 34.8125 
L 19.671875 0 
L 9.8125 0 
z
" id="DejaVuSans-46"/>
       <path d="M 8.5 21.578125 
L 8.5 54.6875 
L 17.484375 54.6875 
L 17.484375 21.921875 
Q 17.484375 14.15625 20.5 10.265625 
Q 23.53125 6.390625 29.59375 6.390625 
Q 36.859375 6.390625 41.078125 11.03125 
Q 45.3125 15.671875 45.3125 23.6875 
L 45.3125 54.6875 
L 54.296875 54.6875 
L 54.296875 0 
L 45.3125 0 
L 45.3125 8.40625 
Q 42.046875 3.421875 37.71875 1 
Q 33.40625 -1.421875 27.6875 -1.421875 
Q 18.265625 -1.421875 13.375 4.4375 
Q 8.5 10.296875 8.5 21.578125 
z
M 31.109375 56 
z
" id="DejaVuSans-75"/>
       <path d="M 9.421875 75.984375 
L 18.40625 75.984375 
L 18.40625 0 
L 9.421875 0 
z
" id="DejaVuSans-6c"/>
       <path id="DejaVuSans-20"/>
       <path d="M 9.8125 72.90625 
L 24.515625 72.90625 
L 43.109375 23.296875 
L 61.8125 72.90625 
L 76.515625 72.90625 
L 76.515625 0 
L 66.890625 0 
L 66.890625 64.015625 
L 48.09375 14.015625 
L 38.1875 14.015625 
L 19.390625 64.015625 
L 19.390625 0 
L 9.8125 0 
z
" id="DejaVuSans-4d"/>
       <path d="M 56.203125 29.59375 
L 56.203125 25.203125 
L 14.890625 25.203125 
Q 15.484375 15.921875 20.484375 11.0625 
Q 25.484375 6.203125 34.421875 6.203125 
Q 39.59375 6.203125 44.453125 7.46875 
Q 49.3125 8.734375 54.109375 11.28125 
L 54.109375 2.78125 
Q 49.265625 0.734375 44.1875 -0.34375 
Q 39.109375 -1.421875 33.890625 -1.421875 
Q 20.796875 -1.421875 13.15625 6.1875 
Q 5.515625 13.8125 5.515625 26.8125 
Q 5.515625 40.234375 12.765625 48.109375 
Q 20.015625 56 32.328125 56 
Q 43.359375 56 49.78125 48.890625 
Q 56.203125 41.796875 56.203125 29.59375 
z
M 47.21875 32.234375 
Q 47.125 39.59375 43.09375 43.984375 
Q 39.0625 48.390625 32.421875 48.390625 
Q 24.90625 48.390625 20.390625 44.140625 
Q 15.875 39.890625 15.1875 32.171875 
z
" id="DejaVuSans-65"/>
       <path d="M 34.28125 27.484375 
Q 23.390625 27.484375 19.1875 25 
Q 14.984375 22.515625 14.984375 16.5 
Q 14.984375 11.71875 18.140625 8.90625 
Q 21.296875 6.109375 26.703125 6.109375 
Q 34.1875 6.109375 38.703125 11.40625 
Q 43.21875 16.703125 43.21875 25.484375 
L 43.21875 27.484375 
z
M 52.203125 31.203125 
L 52.203125 0 
L 43.21875 0 
L 43.21875 8.296875 
Q 40.140625 3.328125 35.546875 0.953125 
Q 30.953125 -1.421875 24.3125 -1.421875 
Q 15.921875 -1.421875 10.953125 3.296875 
Q 6 8.015625 6 15.921875 
Q 6 25.140625 12.171875 29.828125 
Q 18.359375 34.515625 30.609375 34.515625 
L 43.21875 34.515625 
L 43.21875 35.40625 
Q 43.21875 41.609375 39.140625 45 
Q 35.0625 48.390625 27.6875 48.390625 
Q 23 48.390625 18.546875 47.265625 
Q 14.109375 46.140625 10.015625 43.890625 
L 10.015625 52.203125 
Q 14.9375 54.109375 19.578125 55.046875 
Q 24.21875 56 28.609375 56 
Q 40.484375 56 46.34375 49.84375 
Q 52.203125 43.703125 52.203125 31.203125 
z
" id="DejaVuSans-61"/>
       <path d="M 44.28125 53.078125 
L 44.28125 44.578125 
Q 40.484375 46.53125 36.375 47.5 
Q 32.28125 48.484375 27.875 48.484375 
Q 21.1875 48.484375 17.84375 46.4375 
Q 14.5 44.390625 14.5 40.28125 
Q 14.5 37.15625 16.890625 35.375 
Q 19.28125 33.59375 26.515625 31.984375 
L 29.59375 31.296875 
Q 39.15625 29.25 43.1875 25.515625 
Q 47.21875 21.78125 47.21875 15.09375 
Q 47.21875 7.46875 41.1875 3.015625 
Q 35.15625 -1.421875 24.609375 -1.421875 
Q 20.21875 -1.421875 15.453125 -0.5625 
Q 10.6875 0.296875 5.421875 2 
L 5.421875 11.28125 
Q 10.40625 8.6875 15.234375 7.390625 
Q 20.0625 6.109375 24.8125 6.109375 
Q 31.15625 6.109375 34.5625 8.28125 
Q 37.984375 10.453125 37.984375 14.40625 
Q 37.984375 18.0625 35.515625 20.015625 
Q 33.0625 21.96875 24.703125 23.78125 
L 21.578125 24.515625 
Q 13.234375 26.265625 9.515625 29.90625 
Q 5.8125 33.546875 5.8125 39.890625 
Q 5.8125 47.609375 11.28125 51.796875 
Q 16.75 56 26.8125 56 
Q 31.78125 56 36.171875 55.265625 
Q 40.578125 54.546875 44.28125 53.078125 
z
" id="DejaVuSans-73"/>
       <path d="M 41.109375 46.296875 
Q 39.59375 47.171875 37.8125 47.578125 
Q 36.03125 48 33.890625 48 
Q 26.265625 48 22.1875 43.046875 
Q 18.109375 38.09375 18.109375 28.8125 
L 18.109375 0 
L 9.078125 0 
L 9.078125 54.6875 
L 18.109375 54.6875 
L 18.109375 46.1875 
Q 20.953125 51.171875 25.484375 53.578125 
Q 30.03125 56 36.53125 56 
Q 37.453125 56 38.578125 55.875 
Q 39.703125 55.765625 41.0625 55.515625 
z
" id="DejaVuSans-72"/>
       <path d="M 52 44.1875 
Q 55.375 50.25 60.0625 53.125 
Q 64.75 56 71.09375 56 
Q 79.640625 56 84.28125 50.015625 
Q 88.921875 44.046875 88.921875 33.015625 
L 88.921875 0 
L 79.890625 0 
L 79.890625 32.71875 
Q 79.890625 40.578125 77.09375 44.375 
Q 74.3125 48.1875 68.609375 48.1875 
Q 61.625 48.1875 57.5625 43.546875 
Q 53.515625 38.921875 53.515625 30.90625 
L 53.515625 0 
L 44.484375 0 
L 44.484375 32.71875 
Q 44.484375 40.625 41.703125 44.40625 
Q 38.921875 48.1875 33.109375 48.1875 
Q 26.21875 48.1875 22.15625 43.53125 
Q 18.109375 38.875 18.109375 30.90625 
L 18.109375 0 
L 9.078125 0 
L 9.078125 54.6875 
L 18.109375 54.6875 
L 18.109375 46.1875 
Q 21.1875 51.21875 25.484375 53.609375 
Q 29.78125 56 35.6875 56 
Q 41.65625 56 45.828125 52.96875 
Q 50 49.953125 52 44.1875 
z
" id="DejaVuSans-6d"/>
       <path d="M 54.890625 33.015625 
L 54.890625 0 
L 45.90625 0 
L 45.90625 32.71875 
Q 45.90625 40.484375 42.875 44.328125 
Q 39.84375 48.1875 33.796875 48.1875 
Q 26.515625 48.1875 22.3125 43.546875 
Q 18.109375 38.921875 18.109375 30.90625 
L 18.109375 0 
L 9.078125 0 
L 9.078125 54.6875 
L 18.109375 54.6875 
L 18.109375 46.1875 
Q 21.34375 51.125 25.703125 53.5625 
Q 30.078125 56 35.796875 56 
Q 45.21875 56 50.046875 50.171875 
Q 54.890625 44.34375 54.890625 33.015625 
z
" id="DejaVuSans-6e"/>
       <path d="M 18.3125 70.21875 
L 18.3125 54.6875 
L 36.8125 54.6875 
L 36.8125 47.703125 
L 18.3125 47.703125 
L 18.3125 18.015625 
Q 18.3125 11.328125 20.140625 9.421875 
Q 21.96875 7.515625 27.59375 7.515625 
L 36.8125 7.515625 
L 36.8125 0 
L 27.59375 0 
Q 17.1875 0 13.234375 3.875 
Q 9.28125 7.765625 9.28125 18.015625 
L 9.28125 47.703125 
L 2.6875 47.703125 
L 2.6875 54.6875 
L 9.28125 54.6875 
L 9.28125 70.21875 
z
" id="DejaVuSans-74"/>
      </defs>
      <g transform="translate(92.857812 266.598437)scale(0.1 -0.1)">
       <use xlink:href="#DejaVuSans-46"/>
       <use x="57.441406" xlink:href="#DejaVuSans-75"/>
       <use x="120.820312" xlink:href="#DejaVuSans-6c"/>
       <use x="148.603516" xlink:href="#DejaVuSans-6c"/>
       <use x="176.386719" xlink:href="#DejaVuSans-20"/>
       <use x="208.173828" xlink:href="#DejaVuSans-4d"/>
       <use x="294.453125" xlink:href="#DejaVuSans-65"/>
       <use x="355.976562" xlink:href="#DejaVuSans-61"/>
       <use x="417.255859" xlink:href="#DejaVuSans-73"/>
       <use x="469.355469" xlink:href="#DejaVuSans-75"/>
       <use x="532.734375" xlink:href="#DejaVuSans-72"/>
       <use x="573.816406" xlink:href="#DejaVuSans-65"/>
       <use x="635.339844" xlink:href="#DejaVuSans-6d"/>
       <use x="732.751953" xlink:href="#DejaVuSans-65"/>
       <use x="794.275391" xlink:href="#DejaVuSans-6e"/>
       <use x="857.654297" xlink:href="#DejaVuSans-74"/>
      </g>
     </g>
    </g>
    <g id="xtick_2">
     <g id="line2d_2">
      <g>
       <use style="stroke:#000000;stroke-width:0.8;" x="305.1" xlink:href="#mf3fa450c5e" y="252"/>
      </g>
     </g>
     <g id="text_2">
      <!-- Transaction Execution -->
      <defs>
       <path d="M -0.296875 72.90625 
L 61.375 72.90625 
L 61.375 64.59375 
L 35.5 64.59375 
L 35.5 0 
L 25.59375 0 
L 25.59375 64.59375 
L -0.296875 64.59375 
z
" id="DejaVuSans-54"/>
       <path d="M 48.78125 52.59375 
L 48.78125 44.1875 
Q 44.96875 46.296875 41.140625 47.34375 
Q 37.3125 48.390625 33.40625 48.390625 
Q 24.65625 48.390625 19.8125 42.84375 
Q 14.984375 37.3125 14.984375 27.296875 
Q 14.984375 17.28125 19.8125 11.734375 
Q 24.65625 6.203125 33.40625 6.203125 
Q 37.3125 6.203125 41.140625 7.25 
Q 44.96875 8.296875 48.78125 10.40625 
L 48.78125 2.09375 
Q 45.015625 0.34375 40.984375 -0.53125 
Q 36.96875 -1.421875 32.421875 -1.421875 
Q 20.0625 -1.421875 12.78125 6.34375 
Q 5.515625 14.109375 5.515625 27.296875 
Q 5.515625 40.671875 12.859375 48.328125 
Q 20.21875 56 33.015625 56 
Q 37.15625 56 41.109375 55.140625 
Q 45.0625 54.296875 48.78125 52.59375 
z
" id="DejaVuSans-63"/>
       <path d="M 9.421875 54.6875 
L 18.40625 54.6875 
L 18.40625 0 
L 9.421875 0 
z
M 9.421875 75.984375 
L 18.40625 75.984375 
L 18.40625 64.59375 
L 9.421875 64.59375 
z
" id="DejaVuSans-69"/>
       <path d="M 30.609375 48.390625 
Q 23.390625 48.390625 19.1875 42.75 
Q 14.984375 37.109375 14.984375 27.296875 
Q 14.984375 17.484375 19.15625 11.84375 
Q 23.34375 6.203125 30.609375 6.203125 
Q 37.796875 6.203125 41.984375 11.859375 
Q 46.1875 17.53125 46.1875 27.296875 
Q 46.1875 37.015625 41.984375 42.703125 
Q 37.796875 48.390625 30.609375 48.390625 
z
M 30.609375 56 
Q 42.328125 56 49.015625 48.375 
Q 55.71875 40.765625 55.71875 27.296875 
Q 55.71875 13.875 49.015625 6.21875 
Q 42.328125 -1.421875 30.609375 -1.421875 
Q 18.84375 -1.421875 12.171875 6.21875 
Q 5.515625 13.875 5.515625 27.296875 
Q 5.515625 40.765625 12.171875 48.375 
Q 18.84375 56 30.609375 56 
z
" id="DejaVuSans-6f"/>
       <path d="M 9.8125 72.90625 
L 55.90625 72.90625 
L 55.90625 64.59375 
L 19.671875 64.59375 
L 19.671875 43.015625 
L 54.390625 43.015625 
L 54.390625 34.71875 
L 19.671875 34.71875 
L 19.671875 8.296875 
L 56.78125 8.296875 
L 56.78125 0 
L 9.8125 0 
z
" id="DejaVuSans-45"/>
       <path d="M 54.890625 54.6875 
L 35.109375 28.078125 
L 55.90625 0 
L 45.3125 0 
L 29.390625 21.484375 
L 13.484375 0 
L 2.875 0 
L 24.125 28.609375 
L 4.6875 54.6875 
L 15.28125 54.6875 
L 29.78125 35.203125 
L 44.28125 54.6875 
z
" id="DejaVuSans-78"/>
      </defs>
      <g transform="translate(249.496094 266.598437)scale(0.1 -0.1)">
       <use xlink:href="#DejaVuSans-54"/>
       <use x="60.865234" xlink:href="#DejaVuSans-72"/>
       <use x="101.978516" xlink:href="#DejaVuSans-61"/>
       <use x="163.257812" xlink:href="#DejaVuSans-6e"/>
       <use x="226.636719" xlink:href="#DejaVuSans-73"/>
       <use x="278.736328" xlink:href="#DejaVuSans-61"/>
       <use x="340.015625" xlink:href="#DejaVuSans-63"/>
       <use x="394.996094" xlink:href="#DejaVuSans-74"/>
       <use x="434.205078" xlink:href="#DejaVuSans-69"/>
       <use x="461.988281" xlink:href="#DejaVuSans-6f"/>
       <use x="523.169922" xlink:href="#DejaVuSans-6e"/>
       <use x="586.548828" xlink:href="#DejaVuSans-20"/>
       <use x="618.335938" xlink:href="#DejaVuSans-45"/>
       <use x="681.519531" xlink:href="#DejaVuSans-78"/>
       <use x="740.652344" xlink:href="#DejaVuSans-65"/>
       <use x="802.175781" xlink:href="#DejaVuSans-63"/>
       <use x="857.15625" xlink:href="#DejaVuSans-75"/>
       <use x="920.535156" xlink:href="#DejaVuSans-74"/>
       <use x="959.744141" xlink:href="#DejaVuSans-69"/>
       <use x="987.527344" xlink:href="#DejaVuSans-6f"/>
       <use x="1048.708984" xlink:href="#DejaVuSans-6e"/>
      </g>
     </g>
    </g>
   </g>
   <g id="matplotlib.axis_2">
    <g id="ytick_1">
     <g id="line2d_3">
      <defs>
       <path d="M 0 0 
L -3.5 0 
" id="m448aa03e95" style="stroke:#000000;stroke-width:0.8;"/>
      </defs>
      <g>
       <use style="stroke:#000000;stroke-width:0.8;" x="54" xlink:href="#m448aa03e95" y="248.699218"/>
      </g>
     </g>
     <g id="text_3">
      <!-- 300 -->
      <defs>
       <path d="M 40.578125 39.3125 
Q 47.65625 37.796875 51.625 33 
Q 55.609375 28.21875 55.609375 21.1875 
Q 55.609375 10.40625 48.1875 4.484375 
Q 40.765625 -1.421875 27.09375 -1.421875 
Q 22.515625 -1.421875 17.65625 -0.515625 
Q 12.796875 0.390625 7.625 2.203125 
L 7.625 11.71875 
Q 11.71875 9.328125 16.59375 8.109375 
Q 21.484375 6.890625 26.8125 6.890625 
Q 36.078125 6.890625 40.9375 10.546875 
Q 45.796875 14.203125 45.796875 21.1875 
Q 45.796875 27.640625 41.28125 31.265625 
Q 36.765625 34.90625 28.71875 34.90625 
L 20.21875 34.90625 
L 20.21875 43.015625 
L 29.109375 43.015625 
Q 36.375 43.015625 40.234375 45.921875 
Q 44.09375 48.828125 44.09375 54.296875 
Q 44.09375 59.90625 40.109375 62.90625 
Q 36.140625 65.921875 28.71875 65.921875 
Q 24.65625 65.921875 20.015625 65.03125 
Q 15.375 64.15625 9.8125 62.3125 
L 9.8125 71.09375 
Q 15.4375 72.65625 20.34375 73.4375 
Q 25.25 74.21875 29.59375 74.21875 
Q 40.828125 74.21875 47.359375 69.109375 
Q 53.90625 64.015625 53.90625 55.328125 
Q 53.90625 49.265625 50.4375 45.09375 
Q 46.96875 40.921875 40.578125 39.3125 
z
" id="DejaVuSans-33"/>
       <path d="M 31.78125 66.40625 
Q 24.171875 66.40625 20.328125 58.90625 
Q 16.5 51.421875 16.5 36.375 
Q 16.5 21.390625 20.328125 13.890625 
Q 24.171875 6.390625 31.78125 6.390625 
Q 39.453125 6.390625 43.28125 13.890625 
Q 47.125 21.390625 47.125 36.375 
Q 47.125 51.421875 43.28125 58.90625 
Q 39.453125 66.40625 31.78125 66.40625 
z
M 31.78125 74.21875 
Q 44.046875 74.21875 50.515625 64.515625 
Q 56.984375 54.828125 56.984375 36.375 
Q 56.984375 17.96875 50.515625 8.265625 
Q 44.046875 -1.421875 31.78125 -1.421875 
Q 19.53125 -1.421875 13.0625 8.265625 
Q 6.59375 17.96875 6.59375 36.375 
Q 6.59375 54.828125 13.0625 64.515625 
Q 19.53125 74.21875 31.78125 74.21875 
z
" id="DejaVuSans-30"/>
      </defs>
      <g transform="translate(27.9125 252.498437)scale(0.1 -0.1)">
       <use xlink:href="#DejaVuSans-33"/>
       <use x="63.623047" xlink:href="#DejaVuSans-30"/>
       <use x="127.246094" xlink:href="#DejaVuSans-30"/>
      </g>
     </g>
    </g>
    <g id="ytick_2">
     <g id="line2d_4">
      <g>
       <use style="stroke:#000000;stroke-width:0.8;" x="54" xlink:href="#m448aa03e95" y="217.99568"/>
      </g>
     </g>
     <g id="text_4">
      <!-- 400 -->
      <defs>
       <path d="M 37.796875 64.3125 
L 12.890625 25.390625 
L 37.796875 25.390625 
z
M 35.203125 72.90625 
L 47.609375 72.90625 
L 47.609375 25.390625 
L 58.015625 25.390625 
L 58.015625 17.1875 
L 47.609375 17.1875 
L 47.609375 0 
L 37.796875 0 
L 37.796875 17.1875 
L 4.890625 17.1875 
L 4.890625 26.703125 
z
" id="DejaVuSans-34"/>
      </defs>
      <g transform="translate(27.9125 221.794899)scale(0.1 -0.1)">
       <use xlink:href="#DejaVuSans-34"/>
       <use x="63.623047" xlink:href="#DejaVuSans-30"/>
       <use x="127.246094" xlink:href="#DejaVuSans-30"/>
      </g>
     </g>
    </g>
    <g id="ytick_3">
     <g id="line2d_5">
      <g>
       <use style="stroke:#000000;stroke-width:0.8;" x="54" xlink:href="#m448aa03e95" y="187.292142"/>
      </g>
     </g>
     <g id="text_5">
      <!-- 500 -->
      <defs>
       <path d="M 10.796875 72.90625 
L 49.515625 72.90625 
L 49.515625 64.59375 
L 19.828125 64.59375 
L 19.828125 46.734375 
Q 21.96875 47.46875 24.109375 47.828125 
Q 26.265625 48.1875 28.421875 48.1875 
Q 40.625 48.1875 47.75 41.5 
Q 54.890625 34.8125 54.890625 23.390625 
Q 54.890625 11.625 47.5625 5.09375 
Q 40.234375 -1.421875 26.90625 -1.421875 
Q 22.3125 -1.421875 17.546875 -0.640625 
Q 12.796875 0.140625 7.71875 1.703125 
L 7.71875 11.625 
Q 12.109375 9.234375 16.796875 8.0625 
Q 21.484375 6.890625 26.703125 6.890625 
Q 35.15625 6.890625 40.078125 11.328125 
Q 45.015625 15.765625 45.015625 23.390625 
Q 45.015625 31 40.078125 35.4375 
Q 35.15625 39.890625 26.703125 39.890625 
Q 22.75 39.890625 18.8125 39.015625 
Q 14.890625 38.140625 10.796875 36.28125 
z
" id="DejaVuSans-35"/>
      </defs>
      <g transform="translate(27.9125 191.091361)scale(0.1 -0.1)">
       <use xlink:href="#DejaVuSans-35"/>
       <use x="63.623047" xlink:href="#DejaVuSans-30"/>
       <use x="127.246094" xlink:href="#DejaVuSans-30"/>
      </g>
     </g>
    </g>
    <g id="ytick_4">
     <g id="line2d_6">
      <g>
       <use style="stroke:#000000;stroke-width:0.8;" x="54" xlink:href="#m448aa03e95" y="156.588605"/>
      </g>
     </g>
     <g id="text_6">
      <!-- 600 -->
      <defs>
       <path d="M 33.015625 40.375 
Q 26.375 40.375 22.484375 35.828125 
Q 18.609375 31.296875 18.609375 23.390625 
Q 18.609375 15.53125 22.484375 10.953125 
Q 26.375 6.390625 33.015625 6.390625 
Q 39.65625 6.390625 43.53125 10.953125 
Q 47.40625 15.53125 47.40625 23.390625 
Q 47.40625 31.296875 43.53125 35.828125 
Q 39.65625 40.375 33.015625 40.375 
z
M 52.59375 71.296875 
L 52.59375 62.3125 
Q 48.875 64.0625 45.09375 64.984375 
Q 41.3125 65.921875 37.59375 65.921875 
Q 27.828125 65.921875 22.671875 59.328125 
Q 17.53125 52.734375 16.796875 39.40625 
Q 19.671875 43.65625 24.015625 45.921875 
Q 28.375 48.1875 33.59375 48.1875 
Q 44.578125 48.1875 50.953125 41.515625 
Q 57.328125 34.859375 57.328125 23.390625 
Q 57.328125 12.15625 50.6875 5.359375 
Q 44.046875 -1.421875 33.015625 -1.421875 
Q 20.359375 -1.421875 13.671875 8.265625 
Q 6.984375 17.96875 6.984375 36.375 
Q 6.984375 53.65625 15.1875 63.9375 
Q 23.390625 74.21875 37.203125 74.21875 
Q 40.921875 74.21875 44.703125 73.484375 
Q 48.484375 72.75 52.59375 71.296875 
z
" id="DejaVuSans-36"/>
      </defs>
      <g transform="translate(27.9125 160.387823)scale(0.1 -0.1)">
       <use xlink:href="#DejaVuSans-36"/>
       <use x="63.623047" xlink:href="#DejaVuSans-30"/>
       <use x="127.246094" xlink:href="#DejaVuSans-30"/>
      </g>
     </g>
    </g>
    <g id="ytick_5">
     <g id="line2d_7">
      <g>
       <use style="stroke:#000000;stroke-width:0.8;" x="54" xlink:href="#m448aa03e95" y="125.885067"/>
      </g>
     </g>
     <g id="text_7">
      <!-- 700 -->
      <defs>
       <path d="M 8.203125 72.90625 
L 55.078125 72.90625 
L 55.078125 68.703125 
L 28.609375 0 
L 18.3125 0 
L 43.21875 64.59375 
L 8.203125 64.59375 
z
" id="DejaVuSans-37"/>
      </defs>
      <g transform="translate(27.9125 129.684285)scale(0.1 -0.1)">
       <use xlink:href="#DejaVuSans-37"/>
       <use x="63.623047" xlink:href="#DejaVuSans-30"/>
       <use x="127.246094" xlink:href="#DejaVuSans-30"/>
      </g>
     </g>
    </g>
    <g id="ytick_6">
     <g id="line2d_8">
      <g>
       <use style="stroke:#000000;stroke-width:0.8;" x="54" xlink:href="#m448aa03e95" y="95.181529"/>
      </g>
     </g>
     <g id="text_8">
      <!-- 800 -->
      <defs>
       <path d="M 31.78125 34.625 
Q 24.75 34.625 20.71875 30.859375 
Q 16.703125 27.09375 16.703125 20.515625 
Q 16.703125 13.921875 20.71875 10.15625 
Q 24.75 6.390625 31.78125 6.390625 
Q 38.8125 6.390625 42.859375 10.171875 
Q 46.921875 13.96875 46.921875 20.515625 
Q 46.921875 27.09375 42.890625 30.859375 
Q 38.875 34.625 31.78125 34.625 
z
M 21.921875 38.8125 
Q 15.578125 40.375 12.03125 44.71875 
Q 8.5 49.078125 8.5 55.328125 
Q 8.5 64.0625 14.71875 69.140625 
Q 20.953125 74.21875 31.78125 74.21875 
Q 42.671875 74.21875 48.875 69.140625 
Q 55.078125 64.0625 55.078125 55.328125 
Q 55.078125 49.078125 51.53125 44.71875 
Q 48 40.375 41.703125 38.8125 
Q 48.828125 37.15625 52.796875 32.3125 
Q 56.78125 27.484375 56.78125 20.515625 
Q 56.78125 9.90625 50.3125 4.234375 
Q 43.84375 -1.421875 31.78125 -1.421875 
Q 19.734375 -1.421875 13.25 4.234375 
Q 6.78125 9.90625 6.78125 20.515625 
Q 6.78125 27.484375 10.78125 32.3125 
Q 14.796875 37.15625 21.921875 38.8125 
z
M 18.3125 54.390625 
Q 18.3125 48.734375 21.84375 45.5625 
Q 25.390625 42.390625 31.78125 42.390625 
Q 38.140625 42.390625 41.71875 45.5625 
Q 45.3125 48.734375 45.3125 54.390625 
Q 45.3125 60.0625 41.71875 63.234375 
Q 38.140625 66.40625 31.78125 66.40625 
Q 25.390625 66.40625 21.84375 63.234375 
Q 18.3125 60.0625 18.3125 54.390625 
z
" id="DejaVuSans-38"/>
      </defs>
      <g transform="translate(27.9125 98.980748)scale(0.1 -0.1)">
       <use xlink:href="#DejaVuSans-38"/>
       <use x="63.623047" xlink:href="#DejaVuSans-30"/>
       <use x="127.246094" xlink:href="#DejaVuSans-30"/>
      </g>
     </g>
    </g>
    <g id="ytick_7">
     <g id="line2d_9">
      <g>
       <use style="stroke:#000000;stroke-width:0.8;" x="54" xlink:href="#m448aa03e95" y="64.477991"/>
      </g>
     </g>
     <g id="text_9">
      <!-- 900 -->
      <defs>
       <path d="M 10.984375 1.515625 
L 10.984375 10.5 
Q 14.703125 8.734375 18.5 7.8125 
Q 22.3125 6.890625 25.984375 6.890625 
Q 35.75 6.890625 40.890625 13.453125 
Q 46.046875 20.015625 46.78125 33.40625 
Q 43.953125 29.203125 39.59375 26.953125 
Q 35.25 24.703125 29.984375 24.703125 
Q 19.046875 24.703125 12.671875 31.3125 
Q 6.296875 37.9375 6.296875 49.421875 
Q 6.296875 60.640625 12.9375 67.421875 
Q 19.578125 74.21875 30.609375 74.21875 
Q 43.265625 74.21875 49.921875 64.515625 
Q 56.59375 54.828125 56.59375 36.375 
Q 56.59375 19.140625 48.40625 8.859375 
Q 40.234375 -1.421875 26.421875 -1.421875 
Q 22.703125 -1.421875 18.890625 -0.6875 
Q 15.09375 0.046875 10.984375 1.515625 
z
M 30.609375 32.421875 
Q 37.25 32.421875 41.125 36.953125 
Q 45.015625 41.5 45.015625 49.421875 
Q 45.015625 57.28125 41.125 61.84375 
Q 37.25 66.40625 30.609375 66.40625 
Q 23.96875 66.40625 20.09375 61.84375 
Q 16.21875 57.28125 16.21875 49.421875 
Q 16.21875 41.5 20.09375 36.953125 
Q 23.96875 32.421875 30.609375 32.421875 
z
" id="DejaVuSans-39"/>
      </defs>
      <g transform="translate(27.9125 68.27721)scale(0.1 -0.1)">
       <use xlink:href="#DejaVuSans-39"/>
       <use x="63.623047" xlink:href="#DejaVuSans-30"/>
       <use x="127.246094" xlink:href="#DejaVuSans-30"/>
      </g>
     </g>
    </g>
    <g id="text_10">
     <!-- Average Transactions per Second (TPS) -->
     <defs>
      <path d="M 34.1875 63.1875 
L 20.796875 26.90625 
L 47.609375 26.90625 
z
M 28.609375 72.90625 
L 39.796875 72.90625 
L 67.578125 0 
L 57.328125 0 
L 50.6875 18.703125 
L 17.828125 18.703125 
L 11.1875 0 
L 0.78125 0 
z
" id="DejaVuSans-41"/>
      <path d="M 2.984375 54.6875 
L 12.5 54.6875 
L 29.59375 8.796875 
L 46.6875 54.6875 
L 56.203125 54.6875 
L 35.6875 0 
L 23.484375 0 
z
" id="DejaVuSans-76"/>
      <path d="M 45.40625 27.984375 
Q 45.40625 37.75 41.375 43.109375 
Q 37.359375 48.484375 30.078125 48.484375 
Q 22.859375 48.484375 18.828125 43.109375 
Q 14.796875 37.75 14.796875 27.984375 
Q 14.796875 18.265625 18.828125 12.890625 
Q 22.859375 7.515625 30.078125 7.515625 
Q 37.359375 7.515625 41.375 12.890625 
Q 45.40625 18.265625 45.40625 27.984375 
z
M 54.390625 6.78125 
Q 54.390625 -7.171875 48.1875 -13.984375 
Q 42 -20.796875 29.203125 -20.796875 
Q 24.46875 -20.796875 20.265625 -20.09375 
Q 16.0625 -19.390625 12.109375 -17.921875 
L 12.109375 -9.1875 
Q 16.0625 -11.328125 19.921875 -12.34375 
Q 23.78125 -13.375 27.78125 -13.375 
Q 36.625 -13.375 41.015625 -8.765625 
Q 45.40625 -4.15625 45.40625 5.171875 
L 45.40625 9.625 
Q 42.625 4.78125 38.28125 2.390625 
Q 33.9375 0 27.875 0 
Q 17.828125 0 11.671875 7.65625 
Q 5.515625 15.328125 5.515625 27.984375 
Q 5.515625 40.671875 11.671875 48.328125 
Q 17.828125 56 27.875 56 
Q 33.9375 56 38.28125 53.609375 
Q 42.625 51.21875 45.40625 46.390625 
L 45.40625 54.6875 
L 54.390625 54.6875 
z
" id="DejaVuSans-67"/>
      <path d="M 18.109375 8.203125 
L 18.109375 -20.796875 
L 9.078125 -20.796875 
L 9.078125 54.6875 
L 18.109375 54.6875 
L 18.109375 46.390625 
Q 20.953125 51.265625 25.265625 53.625 
Q 29.59375 56 35.59375 56 
Q 45.5625 56 51.78125 48.09375 
Q 58.015625 40.1875 58.015625 27.296875 
Q 58.015625 14.40625 51.78125 6.484375 
Q 45.5625 -1.421875 35.59375 -1.421875 
Q 29.59375 -1.421875 25.265625 0.953125 
Q 20.953125 3.328125 18.109375 8.203125 
z
M 48.6875 27.296875 
Q 48.6875 37.203125 44.609375 42.84375 
Q 40.53125 48.484375 33.40625 48.484375 
Q 26.265625 48.484375 22.1875 42.84375 
Q 18.109375 37.203125 18.109375 27.296875 
Q 18.109375 17.390625 22.1875 11.75 
Q 26.265625 6.109375 33.40625 6.109375 
Q 40.53125 6.109375 44.609375 11.75 
Q 48.6875 17.390625 48.6875 27.296875 
z
" id="DejaVuSans-70"/>
      <path d="M 53.515625 70.515625 
L 53.515625 60.890625 
Q 47.90625 63.578125 42.921875 64.890625 
Q 37.9375 66.21875 33.296875 66.21875 
Q 25.25 66.21875 20.875 63.09375 
Q 16.5 59.96875 16.5 54.203125 
Q 16.5 49.359375 19.40625 46.890625 
Q 22.3125 44.4375 30.421875 42.921875 
L 36.375 41.703125 
Q 47.40625 39.59375 52.65625 34.296875 
Q 57.90625 29 57.90625 20.125 
Q 57.90625 9.515625 50.796875 4.046875 
Q 43.703125 -1.421875 29.984375 -1.421875 
Q 24.8125 -1.421875 18.96875 -0.25 
Q 13.140625 0.921875 6.890625 3.21875 
L 6.890625 13.375 
Q 12.890625 10.015625 18.65625 8.296875 
Q 24.421875 6.59375 29.984375 6.59375 
Q 38.421875 6.59375 43.015625 9.90625 
Q 47.609375 13.234375 47.609375 19.390625 
Q 47.609375 24.75 44.3125 27.78125 
Q 41.015625 30.8125 33.5 32.328125 
L 27.484375 33.5 
Q 16.453125 35.6875 11.515625 40.375 
Q 6.59375 45.0625 6.59375 53.421875 
Q 6.59375 63.09375 13.40625 68.65625 
Q 20.21875 74.21875 32.171875 74.21875 
Q 37.3125 74.21875 42.625 73.28125 
Q 47.953125 72.359375 53.515625 70.515625 
z
" id="DejaVuSans-53"/>
      <path d="M 45.40625 46.390625 
L 45.40625 75.984375 
L 54.390625 75.984375 
L 54.390625 0 
L 45.40625 0 
L 45.40625 8.203125 
Q 42.578125 3.328125 38.25 0.953125 
Q 33.9375 -1.421875 27.875 -1.421875 
Q 17.96875 -1.421875 11.734375 6.484375 
Q 5.515625 14.40625 5.515625 27.296875 
Q 5.515625 40.1875 11.734375 48.09375 
Q 17.96875 56 27.875 56 
Q 33.9375 56 38.25 53.625 
Q 42.578125 51.265625 45.40625 46.390625 
z
M 14.796875 27.296875 
Q 14.796875 17.390625 18.875 11.75 
Q 22.953125 6.109375 30.078125 6.109375 
Q 37.203125 6.109375 41.296875 11.75 
Q 45.40625 17.390625 45.40625 27.296875 
Q 45.40625 37.203125 41.296875 42.84375 
Q 37.203125 48.484375 30.078125 48.484375 
Q 22.953125 48.484375 18.875 42.84375 
Q 14.796875 37.203125 14.796875 27.296875 
z
" id="DejaVuSans-64"/>
      <path d="M 31 75.875 
Q 24.46875 64.65625 21.28125 53.65625 
Q 18.109375 42.671875 18.109375 31.390625 
Q 18.109375 20.125 21.3125 9.0625 
Q 24.515625 -2 31 -13.1875 
L 23.1875 -13.1875 
Q 15.875 -1.703125 12.234375 9.375 
Q 8.59375 20.453125 8.59375 31.390625 
Q 8.59375 42.28125 12.203125 53.3125 
Q 15.828125 64.359375 23.1875 75.875 
z
" id="DejaVuSans-28"/>
      <path d="M 19.671875 64.796875 
L 19.671875 37.40625 
L 32.078125 37.40625 
Q 38.96875 37.40625 42.71875 40.96875 
Q 46.484375 44.53125 46.484375 51.125 
Q 46.484375 57.671875 42.71875 61.234375 
Q 38.96875 64.796875 32.078125 64.796875 
z
M 9.8125 72.90625 
L 32.078125 72.90625 
Q 44.34375 72.90625 50.609375 67.359375 
Q 56.890625 61.8125 56.890625 51.125 
Q 56.890625 40.328125 50.609375 34.8125 
Q 44.34375 29.296875 32.078125 29.296875 
L 19.671875 29.296875 
L 19.671875 0 
L 9.8125 0 
z
" id="DejaVuSans-50"/>
      <path d="M 8.015625 75.875 
L 15.828125 75.875 
Q 23.140625 64.359375 26.78125 53.3125 
Q 30.421875 42.28125 30.421875 31.390625 
Q 30.421875 20.453125 26.78125 9.375 
Q 23.140625 -1.703125 15.828125 -13.1875 
L 8.015625 -13.1875 
Q 14.5 -2 17.703125 9.0625 
Q 20.90625 20.125 20.90625 31.390625 
Q 20.90625 42.671875 17.703125 53.65625 
Q 14.5 64.65625 8.015625 75.875 
z
" id="DejaVuSans-29"/>
     </defs>
     <g transform="translate(21.832812 242.243281)rotate(-90)scale(0.1 -0.1)">
      <use xlink:href="#DejaVuSans-41"/>
      <use x="68.330078" xlink:href="#DejaVuSans-76"/>
      <use x="127.509766" xlink:href="#DejaVuSans-65"/>
      <use x="189.033203" xlink:href="#DejaVuSans-72"/>
      <use x="230.146484" xlink:href="#DejaVuSans-61"/>
      <use x="291.425781" xlink:href="#DejaVuSans-67"/>
      <use x="354.902344" xlink:href="#DejaVuSans-65"/>
      <use x="416.425781" xlink:href="#DejaVuSans-20"/>
      <use x="448.212891" xlink:href="#DejaVuSans-54"/>
      <use x="509.078125" xlink:href="#DejaVuSans-72"/>
      <use x="550.191406" xlink:href="#DejaVuSans-61"/>
      <use x="611.470703" xlink:href="#DejaVuSans-6e"/>
      <use x="674.849609" xlink:href="#DejaVuSans-73"/>
      <use x="726.949219" xlink:href="#DejaVuSans-61"/>
      <use x="788.228516" xlink:href="#DejaVuSans-63"/>
      <use x="843.208984" xlink:href="#DejaVuSans-74"/>
      <use x="882.417969" xlink:href="#DejaVuSans-69"/>
      <use x="910.201172" xlink:href="#DejaVuSans-6f"/>
      <use x="971.382812" xlink:href="#DejaVuSans-6e"/>
      <use x="1034.761719" xlink:href="#DejaVuSans-73"/>
      <use x="1086.861328" xlink:href="#DejaVuSans-20"/>
      <use x="1118.648438" xlink:href="#DejaVuSans-70"/>
      <use x="1182.125" xlink:href="#DejaVuSans-65"/>
      <use x="1243.648438" xlink:href="#DejaVuSans-72"/>
      <use x="1284.761719" xlink:href="#DejaVuSans-20"/>
      <use x="1316.548828" xlink:href="#DejaVuSans-53"/>
      <use x="1380.025391" xlink:href="#DejaVuSans-65"/>
      <use x="1441.548828" xlink:href="#DejaVuSans-63"/>
      <use x="1496.529297" xlink:href="#DejaVuSans-6f"/>
      <use x="1557.710938" xlink:href="#DejaVuSans-6e"/>
      <use x="1621.089844" xlink:href="#DejaVuSans-64"/>
      <use x="1684.566406" xlink:href="#DejaVuSans-20"/>
      <use x="1716.353516" xlink:href="#DejaVuSans-28"/>
      <use x="1755.367188" xlink:href="#DejaVuSans-54"/>
      <use x="1816.451172" xlink:href="#DejaVuSans-50"/>
      <use x="1876.753906" xlink:href="#DejaVuSans-53"/>
      <use x="1940.230469" xlink:href="#DejaVuSans-29"/>
     </g>
    </g>
   </g>
   <g id="line2d_10">
    <path clip-path="url(#pa91724f8e2)" d="M 104.22 240.708638 
L 104.22 242.116364 
" style="fill:none;stroke:#000000;stroke-linecap:square;"/>
   </g>
   <g id="line2d_11">
    <path clip-path="url(#pa91724f8e2)" d="M 104.22 239.703259 
L 104.22 238.464705 
" style="fill:none;stroke:#000000;stroke-linecap:square;"/>
   </g>
   <g id="line2d_12">
    <path clip-path="url(#pa91724f8e2)" d="M 97.9425 242.116364 
L 110.4975 242.116364 
" style="fill:none;stroke:#000000;stroke-linecap:square;"/>
   </g>
   <g id="line2d_13">
    <path clip-path="url(#pa91724f8e2)" d="M 97.9425 238.464705 
L 110.4975 238.464705 
" style="fill:none;stroke:#000000;stroke-linecap:square;"/>
   </g>
   <g id="line2d_14">
    <defs>
     <path d="M 0 3 
C 0.795609 3 1.55874 2.683901 2.12132 2.12132 
C 2.683901 1.55874 3 0.795609 3 0 
C 3 -0.795609 2.683901 -1.55874 2.12132 -2.12132 
C 1.55874 -2.683901 0.795609 -3 0 -3 
C -0.795609 -3 -1.55874 -2.683901 -2.12132 -2.12132 
C -2.683901 -1.55874 -3 -0.795609 -3 0 
C -3 0.795609 -2.683901 1.55874 -2.12132 2.12132 
C -1.55874 2.683901 -0.795609 3 0 3 
z
" id="m0f6ad137ea" style="stroke:#000000;"/>
    </defs>
    <g clip-path="url(#pa91724f8e2)">
     <use style="fill-opacity:0;stroke:#000000;" x="104.22" xlink:href="#m0f6ad137ea" y="238.088059"/>
    </g>
   </g>
   <g id="line2d_15">
    <path clip-path="url(#pa91724f8e2)" d="M 271.62 154.552286 
L 271.62 190.670282 
" style="fill:none;stroke:#000000;stroke-linecap:square;"/>
   </g>
   <g id="line2d_16">
    <path clip-path="url(#pa91724f8e2)" d="M 271.62 47.276965 
L 271.62 44.443636 
" style="fill:none;stroke:#000000;stroke-linecap:square;"/>
   </g>
   <g id="line2d_17">
    <path clip-path="url(#pa91724f8e2)" d="M 265.3425 190.670282 
L 277.8975 190.670282 
" style="fill:none;stroke:#000000;stroke-linecap:square;"/>
   </g>
   <g id="line2d_18">
    <path clip-path="url(#pa91724f8e2)" d="M 265.3425 44.443636 
L 277.8975 44.443636 
" style="fill:none;stroke:#000000;stroke-linecap:square;"/>
   </g>
   <g id="line2d_19"/>
   <g id="patch_3">
    <path clip-path="url(#pa91724f8e2)" d="M 91.665 240.708638 
L 116.775 240.708638 
L 116.775 239.703259 
L 91.665 239.703259 
L 91.665 240.708638 
z
" style="fill:#ffffff;stroke:#1f77b4;stroke-linejoin:miter;stroke-width:2;"/>
   </g>
   <g id="patch_4">
    <path clip-path="url(#pa91724f8e2)" d="M 259.065 154.552286 
L 284.175 154.552286 
L 284.175 47.276965 
L 259.065 47.276965 
L 259.065 154.552286 
z
" style="fill:#ffffff;stroke:#1f77b4;stroke-linejoin:miter;stroke-width:2;"/>
   </g>
   <g id="line2d_20">
    <path clip-path="url(#pa91724f8e2)" d="M 91.665 240.07644 
L 116.775 240.07644 
" style="fill:none;stroke:#000000;stroke-linecap:square;stroke-width:2;"/>
   </g>
   <g id="line2d_21">
    <path clip-path="url(#pa91724f8e2)" d="M 259.065 125.043472 
L 284.175 125.043472 
" style="fill:none;stroke:#000000;stroke-linecap:square;stroke-width:2;"/>
   </g>
   <g id="patch_5">
    <path d="M 54 252 
L 54 34.56 
" style="fill:none;stroke:#000000;stroke-linecap:square;stroke-linejoin:miter;stroke-width:0.8;"/>
   </g>
   <g id="patch_6">
    <path d="M 388.8 252 
L 388.8 34.56 
" style="fill:none;stroke:#000000;stroke-linecap:square;stroke-linejoin:miter;stroke-width:0.8;"/>
   </g>
   <g id="patch_7">
    <path d="M 54 252 
L 388.8 252 
" style="fill:none;stroke:#000000;stroke-linecap:square;stroke-linejoin:miter;stroke-width:0.8;"/>
   </g>
   <g id="patch_8">
    <path d="M 54 34.56 
L 388.8 34.56 
" style="fill:none;stroke:#000000;stroke-linecap:square;stroke-linejoin:miter;stroke-width:0.8;"/>
   </g>
   <g id="text_11">
    <!-- Full Measurement vs. Transaction Execution -->
    <defs>
     <path d="M 10.6875 12.40625 
L 21 12.40625 
L 21 0 
L 10.6875 0 
z
" id="DejaVuSans-2e"/>
    </defs>
    <g transform="translate(88.467188 15.122625)scale(0.12 -0.12)">
     <use xlink:href="#DejaVuSans-46"/>
     <use x="57.441406" xlink:href="#DejaVuSans-75"/>
     <use x="120.820312" xlink:href="#DejaVuSans-6c"/>
     <use x="148.603516" xlink:href="#DejaVuSans-6c"/>
     <use x="176.386719" xlink:href="#DejaVuSans-20"/>
     <use x="208.173828" xlink:href="#DejaVuSans-4d"/>
     <use x="294.453125" xlink:href="#DejaVuSans-65"/>
     <use x="355.976562" xlink:href="#DejaVuSans-61"/>
     <use x="417.255859" xlink:href="#DejaVuSans-73"/>
     <use x="469.355469" xlink:href="#DejaVuSans-75"/>
     <use x="532.734375" xlink:href="#DejaVuSans-72"/>
     <use x="573.816406" xlink:href="#DejaVuSans-65"/>
     <use x="635.339844" xlink:href="#DejaVuSans-6d"/>
     <use x="732.751953" xlink:href="#DejaVuSans-65"/>
     <use x="794.275391" xlink:href="#DejaVuSans-6e"/>
     <use x="857.654297" xlink:href="#DejaVuSans-74"/>
     <use x="896.863281" xlink:href="#DejaVuSans-20"/>
     <use x="928.650391" xlink:href="#DejaVuSans-76"/>
     <use x="987.830078" xlink:href="#DejaVuSans-73"/>
     <use x="1039.929688" xlink:href="#DejaVuSans-2e"/>
     <use x="1071.716797" xlink:href="#DejaVuSans-20"/>
     <use x="1103.503906" xlink:href="#DejaVuSans-54"/>
     <use x="1164.369141" xlink:href="#DejaVuSans-72"/>
     <use x="1205.482422" xlink:href="#DejaVuSans-61"/>
     <use x="1266.761719" xlink:href="#DejaVuSans-6e"/>
     <use x="1330.140625" xlink:href="#DejaVuSans-73"/>
     <use x="1382.240234" xlink:href="#DejaVuSans-61"/>
     <use x="1443.519531" xlink:href="#DejaVuSans-63"/>
     <use x="1498.5" xlink:href="#DejaVuSans-74"/>
     <use x="1537.708984" xlink:href="#DejaVuSans-69"/>
     <use x="1565.492188" xlink:href="#DejaVuSans-6f"/>
     <use x="1626.673828" xlink:href="#DejaVuSans-6e"/>
     <use x="1690.052734" xlink:href="#DejaVuSans-20"/>
     <use x="1721.839844" xlink:href="#DejaVuSans-45"/>
     <use x="1785.023438" xlink:href="#DejaVuSans-78"/>
     <use x="1844.15625" xlink:href="#DejaVuSans-65"/>
     <use x="1905.679688" xlink:href="#DejaVuSans-63"/>
     <use x="1960.660156" xlink:href="#DejaVuSans-75"/>
     <use x="2024.039062" xlink:href="#DejaVuSans-74"/>
     <use x="2063.248047" xlink:href="#DejaVuSans-69"/>
     <use x="2091.03125" xlink:href="#DejaVuSans-6f"/>
     <use x="2152.212891" xlink:href="#DejaVuSans-6e"/>
    </g>
    <!--  (1 Node, PoA, period 1 sec, gasLimit * 8, c5.4xlarge, n=300) -->
    <defs>
     <path d="M 12.40625 8.296875 
L 28.515625 8.296875 
L 28.515625 63.921875 
L 10.984375 60.40625 
L 10.984375 69.390625 
L 28.421875 72.90625 
L 38.28125 72.90625 
L 38.28125 8.296875 
L 54.390625 8.296875 
L 54.390625 0 
L 12.40625 0 
z
" id="DejaVuSans-31"/>
     <path d="M 9.8125 72.90625 
L 23.09375 72.90625 
L 55.421875 11.921875 
L 55.421875 72.90625 
L 64.984375 72.90625 
L 64.984375 0 
L 51.703125 0 
L 19.390625 60.984375 
L 19.390625 0 
L 9.8125 0 
z
" id="DejaVuSans-4e"/>
     <path d="M 11.71875 12.40625 
L 22.015625 12.40625 
L 22.015625 4 
L 14.015625 -11.625 
L 7.71875 -11.625 
L 11.71875 4 
z
" id="DejaVuSans-2c"/>
     <path d="M 9.8125 72.90625 
L 19.671875 72.90625 
L 19.671875 8.296875 
L 55.171875 8.296875 
L 55.171875 0 
L 9.8125 0 
z
" id="DejaVuSans-4c"/>
     <path d="M 47.015625 60.890625 
L 29.5 51.421875 
L 47.015625 41.890625 
L 44.1875 37.109375 
L 27.78125 47.015625 
L 27.78125 28.609375 
L 22.21875 28.609375 
L 22.21875 47.015625 
L 5.8125 37.109375 
L 2.984375 41.890625 
L 20.515625 51.421875 
L 2.984375 60.890625 
L 5.8125 65.71875 
L 22.21875 55.8125 
L 22.21875 74.21875 
L 27.78125 74.21875 
L 27.78125 55.8125 
L 44.1875 65.71875 
z
" id="DejaVuSans-2a"/>
     <path d="M 10.59375 45.40625 
L 73.1875 45.40625 
L 73.1875 37.203125 
L 10.59375 37.203125 
z
M 10.59375 25.484375 
L 73.1875 25.484375 
L 73.1875 17.1875 
L 10.59375 17.1875 
z
" id="DejaVuSans-3d"/>
    </defs>
    <g transform="translate(38.0025 28.56)scale(0.12 -0.12)">
     <use xlink:href="#DejaVuSans-20"/>
     <use x="31.787109" xlink:href="#DejaVuSans-28"/>
     <use x="70.800781" xlink:href="#DejaVuSans-31"/>
     <use x="134.423828" xlink:href="#DejaVuSans-20"/>
     <use x="166.210938" xlink:href="#DejaVuSans-4e"/>
     <use x="241.015625" xlink:href="#DejaVuSans-6f"/>
     <use x="302.197266" xlink:href="#DejaVuSans-64"/>
     <use x="365.673828" xlink:href="#DejaVuSans-65"/>
     <use x="427.197266" xlink:href="#DejaVuSans-2c"/>
     <use x="458.984375" xlink:href="#DejaVuSans-20"/>
     <use x="490.771484" xlink:href="#DejaVuSans-50"/>
     <use x="551.027344" xlink:href="#DejaVuSans-6f"/>
     <use x="612.208984" xlink:href="#DejaVuSans-41"/>
     <use x="680.617188" xlink:href="#DejaVuSans-2c"/>
     <use x="712.404297" xlink:href="#DejaVuSans-20"/>
     <use x="744.191406" xlink:href="#DejaVuSans-70"/>
     <use x="807.667969" xlink:href="#DejaVuSans-65"/>
     <use x="869.191406" xlink:href="#DejaVuSans-72"/>
     <use x="910.304688" xlink:href="#DejaVuSans-69"/>
     <use x="938.087891" xlink:href="#DejaVuSans-6f"/>
     <use x="999.269531" xlink:href="#DejaVuSans-64"/>
     <use x="1062.746094" xlink:href="#DejaVuSans-20"/>
     <use x="1094.533203" xlink:href="#DejaVuSans-31"/>
     <use x="1158.15625" xlink:href="#DejaVuSans-20"/>
     <use x="1189.943359" xlink:href="#DejaVuSans-73"/>
     <use x="1242.042969" xlink:href="#DejaVuSans-65"/>
     <use x="1303.566406" xlink:href="#DejaVuSans-63"/>
     <use x="1358.546875" xlink:href="#DejaVuSans-2c"/>
     <use x="1390.333984" xlink:href="#DejaVuSans-20"/>
     <use x="1422.121094" xlink:href="#DejaVuSans-67"/>
     <use x="1485.597656" xlink:href="#DejaVuSans-61"/>
     <use x="1546.876953" xlink:href="#DejaVuSans-73"/>
     <use x="1598.976562" xlink:href="#DejaVuSans-4c"/>
     <use x="1654.689453" xlink:href="#DejaVuSans-69"/>
     <use x="1682.472656" xlink:href="#DejaVuSans-6d"/>
     <use x="1779.884766" xlink:href="#DejaVuSans-69"/>
     <use x="1807.667969" xlink:href="#DejaVuSans-74"/>
     <use x="1846.876953" xlink:href="#DejaVuSans-20"/>
     <use x="1878.664062" xlink:href="#DejaVuSans-2a"/>
     <use x="1928.664062" xlink:href="#DejaVuSans-20"/>
     <use x="1960.451172" xlink:href="#DejaVuSans-38"/>
     <use x="2024.074219" xlink:href="#DejaVuSans-2c"/>
     <use x="2055.861328" xlink:href="#DejaVuSans-20"/>
     <use x="2087.648438" xlink:href="#DejaVuSans-63"/>
     <use x="2142.628906" xlink:href="#DejaVuSans-35"/>
     <use x="2206.251953" xlink:href="#DejaVuSans-2e"/>
     <use x="2238.039062" xlink:href="#DejaVuSans-34"/>
     <use x="2301.662109" xlink:href="#DejaVuSans-78"/>
     <use x="2360.841797" xlink:href="#DejaVuSans-6c"/>
     <use x="2388.625" xlink:href="#DejaVuSans-61"/>
     <use x="2449.904297" xlink:href="#DejaVuSans-72"/>
     <use x="2491.001953" xlink:href="#DejaVuSans-67"/>
     <use x="2554.478516" xlink:href="#DejaVuSans-65"/>
     <use x="2616.001953" xlink:href="#DejaVuSans-2c"/>
     <use x="2647.789062" xlink:href="#DejaVuSans-20"/>
     <use x="2679.576172" xlink:href="#DejaVuSans-6e"/>
     <use x="2742.955078" xlink:href="#DejaVuSans-3d"/>
     <use x="2826.744141" xlink:href="#DejaVuSans-33"/>
     <use x="2890.367188" xlink:href="#DejaVuSans-30"/>
     <use x="2953.990234" xlink:href="#DejaVuSans-30"/>
     <use x="3017.613281" xlink:href="#DejaVuSans-29"/>
    </g>
   </g>
   <g id="legend_1">
    <g id="patch_9">
     <path d="M 111.289219 309.294125 
L 201.590781 309.294125 
Q 203.590781 309.294125 203.590781 307.294125 
L 203.590781 293.616 
Q 203.590781 291.616 201.590781 291.616 
L 111.289219 291.616 
Q 109.289219 291.616 109.289219 293.616 
L 109.289219 307.294125 
Q 109.289219 309.294125 111.289219 309.294125 
z
" style="fill:#4c4c4c;opacity:0.5;stroke:#4c4c4c;stroke-linejoin:miter;"/>
    </g>
    <g id="patch_10">
     <path d="M 109.289219 307.294125 
L 199.590781 307.294125 
Q 201.590781 307.294125 201.590781 305.294125 
L 201.590781 291.616 
Q 201.590781 289.616 199.590781 289.616 
L 109.289219 289.616 
Q 107.289219 289.616 107.289219 291.616 
L 107.289219 305.294125 
Q 107.289219 307.294125 109.289219 307.294125 
z
" style="fill:#ffffff;stroke:#cccccc;stroke-linejoin:miter;"/>
    </g>
    <g id="patch_11">
     <path d="M 111.289219 301.214437 
L 131.289219 301.214437 
L 131.289219 294.214437 
L 111.289219 294.214437 
z
" style="fill:#ffffff;stroke:#1f77b4;stroke-linejoin:miter;stroke-width:2;"/>
    </g>
    <g id="text_12">
     <!-- Throughput -->
     <defs>
      <path d="M 54.890625 33.015625 
L 54.890625 0 
L 45.90625 0 
L 45.90625 32.71875 
Q 45.90625 40.484375 42.875 44.328125 
Q 39.84375 48.1875 33.796875 48.1875 
Q 26.515625 48.1875 22.3125 43.546875 
Q 18.109375 38.921875 18.109375 30.90625 
L 18.109375 0 
L 9.078125 0 
L 9.078125 75.984375 
L 18.109375 75.984375 
L 18.109375 46.1875 
Q 21.34375 51.125 25.703125 53.5625 
Q 30.078125 56 35.796875 56 
Q 45.21875 56 50.046875 50.171875 
Q 54.890625 44.34375 54.890625 33.015625 
z
" id="DejaVuSans-68"/>
     </defs>
     <g transform="translate(139.289219 301.214437)scale(0.1 -0.1)">
      <use xlink:href="#DejaVuSans-54"/>
      <use x="61.083984" xlink:href="#DejaVuSans-68"/>
      <use x="124.462891" xlink:href="#DejaVuSans-72"/>
      <use x="165.544922" xlink:href="#DejaVuSans-6f"/>
      <use x="226.726562" xlink:href="#DejaVuSans-75"/>
      <use x="290.105469" xlink:href="#DejaVuSans-67"/>
      <use x="353.582031" xlink:href="#DejaVuSans-68"/>
      <use x="416.960938" xlink:href="#DejaVuSans-70"/>
      <use x="480.4375" xlink:href="#DejaVuSans-75"/>
      <use x="543.816406" xlink:href="#DejaVuSans-74"/>
     </g>
    </g>
   </g>
  </g>
  <g id="axes_2">
   <g id="matplotlib.axis_3">
    <g id="ytick_8">
     <g id="line2d_22">
      <defs>
       <path d="M 0 0 
L 3.5 0 
" id="m2a2597fd0a" style="stroke:#000000;stroke-width:0.8;"/>
      </defs>
      <g>
       <use style="stroke:#000000;stroke-width:0.8;" x="388.8" xlink:href="#m2a2597fd0a" y="233.100266"/>
      </g>
     </g>
     <g id="text_13">
      <!-- 0.8 -->
      <g transform="translate(395.8 236.899484)scale(0.1 -0.1)">
       <use xlink:href="#DejaVuSans-30"/>
       <use x="63.623047" xlink:href="#DejaVuSans-2e"/>
       <use x="95.410156" xlink:href="#DejaVuSans-38"/>
      </g>
     </g>
    </g>
    <g id="ytick_9">
     <g id="line2d_23">
      <g>
       <use style="stroke:#000000;stroke-width:0.8;" x="388.8" xlink:href="#m2a2597fd0a" y="207.175548"/>
      </g>
     </g>
     <g id="text_14">
      <!-- 1.0 -->
      <g transform="translate(395.8 210.974767)scale(0.1 -0.1)">
       <use xlink:href="#DejaVuSans-31"/>
       <use x="63.623047" xlink:href="#DejaVuSans-2e"/>
       <use x="95.410156" xlink:href="#DejaVuSans-30"/>
      </g>
     </g>
    </g>
    <g id="ytick_10">
     <g id="line2d_24">
      <g>
       <use style="stroke:#000000;stroke-width:0.8;" x="388.8" xlink:href="#m2a2597fd0a" y="181.250831"/>
      </g>
     </g>
     <g id="text_15">
      <!-- 1.2 -->
      <defs>
       <path d="M 19.1875 8.296875 
L 53.609375 8.296875 
L 53.609375 0 
L 7.328125 0 
L 7.328125 8.296875 
Q 12.9375 14.109375 22.625 23.890625 
Q 32.328125 33.6875 34.8125 36.53125 
Q 39.546875 41.84375 41.421875 45.53125 
Q 43.3125 49.21875 43.3125 52.78125 
Q 43.3125 58.59375 39.234375 62.25 
Q 35.15625 65.921875 28.609375 65.921875 
Q 23.96875 65.921875 18.8125 64.3125 
Q 13.671875 62.703125 7.8125 59.421875 
L 7.8125 69.390625 
Q 13.765625 71.78125 18.9375 73 
Q 24.125 74.21875 28.421875 74.21875 
Q 39.75 74.21875 46.484375 68.546875 
Q 53.21875 62.890625 53.21875 53.421875 
Q 53.21875 48.921875 51.53125 44.890625 
Q 49.859375 40.875 45.40625 35.40625 
Q 44.1875 33.984375 37.640625 27.21875 
Q 31.109375 20.453125 19.1875 8.296875 
z
" id="DejaVuSans-32"/>
      </defs>
      <g transform="translate(395.8 185.05005)scale(0.1 -0.1)">
       <use xlink:href="#DejaVuSans-31"/>
       <use x="63.623047" xlink:href="#DejaVuSans-2e"/>
       <use x="95.410156" xlink:href="#DejaVuSans-32"/>
      </g>
     </g>
    </g>
    <g id="ytick_11">
     <g id="line2d_25">
      <g>
       <use style="stroke:#000000;stroke-width:0.8;" x="388.8" xlink:href="#m2a2597fd0a" y="155.326114"/>
      </g>
     </g>
     <g id="text_16">
      <!-- 1.4 -->
      <g transform="translate(395.8 159.125333)scale(0.1 -0.1)">
       <use xlink:href="#DejaVuSans-31"/>
       <use x="63.623047" xlink:href="#DejaVuSans-2e"/>
       <use x="95.410156" xlink:href="#DejaVuSans-34"/>
      </g>
     </g>
    </g>
    <g id="ytick_12">
     <g id="line2d_26">
      <g>
       <use style="stroke:#000000;stroke-width:0.8;" x="388.8" xlink:href="#m2a2597fd0a" y="129.401397"/>
      </g>
     </g>
     <g id="text_17">
      <!-- 1.6 -->
      <g transform="translate(395.8 133.200616)scale(0.1 -0.1)">
       <use xlink:href="#DejaVuSans-31"/>
       <use x="63.623047" xlink:href="#DejaVuSans-2e"/>
       <use x="95.410156" xlink:href="#DejaVuSans-36"/>
      </g>
     </g>
    </g>
    <g id="ytick_13">
     <g id="line2d_27">
      <g>
       <use style="stroke:#000000;stroke-width:0.8;" x="388.8" xlink:href="#m2a2597fd0a" y="103.47668"/>
      </g>
     </g>
     <g id="text_18">
      <!-- 1.8 -->
      <g transform="translate(395.8 107.275899)scale(0.1 -0.1)">
       <use xlink:href="#DejaVuSans-31"/>
       <use x="63.623047" xlink:href="#DejaVuSans-2e"/>
       <use x="95.410156" xlink:href="#DejaVuSans-38"/>
      </g>
     </g>
    </g>
    <g id="ytick_14">
     <g id="line2d_28">
      <g>
       <use style="stroke:#000000;stroke-width:0.8;" x="388.8" xlink:href="#m2a2597fd0a" y="77.551963"/>
      </g>
     </g>
     <g id="text_19">
      <!-- 2.0 -->
      <g transform="translate(395.8 81.351182)scale(0.1 -0.1)">
       <use xlink:href="#DejaVuSans-32"/>
       <use x="63.623047" xlink:href="#DejaVuSans-2e"/>
       <use x="95.410156" xlink:href="#DejaVuSans-30"/>
      </g>
     </g>
    </g>
    <g id="ytick_15">
     <g id="line2d_29">
      <g>
       <use style="stroke:#000000;stroke-width:0.8;" x="388.8" xlink:href="#m2a2597fd0a" y="51.627246"/>
      </g>
     </g>
     <g id="text_20">
      <!-- 2.2 -->
      <g transform="translate(395.8 55.426465)scale(0.1 -0.1)">
       <use xlink:href="#DejaVuSans-32"/>
       <use x="63.623047" xlink:href="#DejaVuSans-2e"/>
       <use x="95.410156" xlink:href="#DejaVuSans-32"/>
      </g>
     </g>
    </g>
    <g id="text_21">
     <!-- Average Transaction Latency [seconds] -->
     <defs>
      <path d="M 32.171875 -5.078125 
Q 28.375 -14.84375 24.75 -17.8125 
Q 21.140625 -20.796875 15.09375 -20.796875 
L 7.90625 -20.796875 
L 7.90625 -13.28125 
L 13.1875 -13.28125 
Q 16.890625 -13.28125 18.9375 -11.515625 
Q 21 -9.765625 23.484375 -3.21875 
L 25.09375 0.875 
L 2.984375 54.6875 
L 12.5 54.6875 
L 29.59375 11.921875 
L 46.6875 54.6875 
L 56.203125 54.6875 
z
" id="DejaVuSans-79"/>
      <path d="M 8.59375 75.984375 
L 29.296875 75.984375 
L 29.296875 69 
L 17.578125 69 
L 17.578125 -6.203125 
L 29.296875 -6.203125 
L 29.296875 -13.1875 
L 8.59375 -13.1875 
z
" id="DejaVuSans-5b"/>
      <path d="M 30.421875 75.984375 
L 30.421875 -13.1875 
L 9.71875 -13.1875 
L 9.71875 -6.203125 
L 21.390625 -6.203125 
L 21.390625 69 
L 9.71875 69 
L 9.71875 75.984375 
z
" id="DejaVuSans-5d"/>
     </defs>
     <g transform="translate(423.301562 242.299531)rotate(-90)scale(0.1 -0.1)">
      <use xlink:href="#DejaVuSans-41"/>
      <use x="68.330078" xlink:href="#DejaVuSans-76"/>
      <use x="127.509766" xlink:href="#DejaVuSans-65"/>
      <use x="189.033203" xlink:href="#DejaVuSans-72"/>
      <use x="230.146484" xlink:href="#DejaVuSans-61"/>
      <use x="291.425781" xlink:href="#DejaVuSans-67"/>
      <use x="354.902344" xlink:href="#DejaVuSans-65"/>
      <use x="416.425781" xlink:href="#DejaVuSans-20"/>
      <use x="448.212891" xlink:href="#DejaVuSans-54"/>
      <use x="509.078125" xlink:href="#DejaVuSans-72"/>
      <use x="550.191406" xlink:href="#DejaVuSans-61"/>
      <use x="611.470703" xlink:href="#DejaVuSans-6e"/>
      <use x="674.849609" xlink:href="#DejaVuSans-73"/>
      <use x="726.949219" xlink:href="#DejaVuSans-61"/>
      <use x="788.228516" xlink:href="#DejaVuSans-63"/>
      <use x="843.208984" xlink:href="#DejaVuSans-74"/>
      <use x="882.417969" xlink:href="#DejaVuSans-69"/>
      <use x="910.201172" xlink:href="#DejaVuSans-6f"/>
      <use x="971.382812" xlink:href="#DejaVuSans-6e"/>
      <use x="1034.761719" xlink:href="#DejaVuSans-20"/>
      <use x="1066.548828" xlink:href="#DejaVuSans-4c"/>
      <use x="1122.261719" xlink:href="#DejaVuSans-61"/>
      <use x="1183.541016" xlink:href="#DejaVuSans-74"/>
      <use x="1222.75" xlink:href="#DejaVuSans-65"/>
      <use x="1284.273438" xlink:href="#DejaVuSans-6e"/>
      <use x="1347.652344" xlink:href="#DejaVuSans-63"/>
      <use x="1402.632812" xlink:href="#DejaVuSans-79"/>
      <use x="1461.8125" xlink:href="#DejaVuSans-20"/>
      <use x="1493.599609" xlink:href="#DejaVuSans-5b"/>
      <use x="1532.613281" xlink:href="#DejaVuSans-73"/>
      <use x="1584.712891" xlink:href="#DejaVuSans-65"/>
      <use x="1646.236328" xlink:href="#DejaVuSans-63"/>
      <use x="1701.216797" xlink:href="#DejaVuSans-6f"/>
      <use x="1762.398438" xlink:href="#DejaVuSans-6e"/>
      <use x="1825.777344" xlink:href="#DejaVuSans-64"/>
      <use x="1889.253906" xlink:href="#DejaVuSans-73"/>
      <use x="1941.353516" xlink:href="#DejaVuSans-5d"/>
     </g>
    </g>
   </g>
   <g id="line2d_30">
    <path clip-path="url(#pa91724f8e2)" d="M 137.7 68.374419 
L 137.7 78.005905 
" style="fill:none;stroke:#000000;stroke-linecap:square;"/>
   </g>
   <g id="line2d_31">
    <path clip-path="url(#pa91724f8e2)" d="M 137.7 61.612442 
L 137.7 53.106121 
" style="fill:none;stroke:#000000;stroke-linecap:square;"/>
   </g>
   <g id="line2d_32">
    <path clip-path="url(#pa91724f8e2)" d="M 131.4225 78.005905 
L 143.9775 78.005905 
" style="fill:none;stroke:#000000;stroke-linecap:square;"/>
   </g>
   <g id="line2d_33">
    <path clip-path="url(#pa91724f8e2)" d="M 131.4225 53.106121 
L 143.9775 53.106121 
" style="fill:none;stroke:#000000;stroke-linecap:square;"/>
   </g>
   <g id="line2d_34">
    <g clip-path="url(#pa91724f8e2)">
     <use style="fill-opacity:0;stroke:#000000;" x="137.7" xlink:href="#m0f6ad137ea" y="78.928436"/>
     <use style="fill-opacity:0;stroke:#000000;" x="137.7" xlink:href="#m0f6ad137ea" y="80.657226"/>
     <use style="fill-opacity:0;stroke:#000000;" x="137.7" xlink:href="#m0f6ad137ea" y="79.823746"/>
     <use style="fill-opacity:0;stroke:#000000;" x="137.7" xlink:href="#m0f6ad137ea" y="44.443636"/>
     <use style="fill-opacity:0;stroke:#000000;" x="137.7" xlink:href="#m0f6ad137ea" y="47.711188"/>
     <use style="fill-opacity:0;stroke:#000000;" x="137.7" xlink:href="#m0f6ad137ea" y="46.516966"/>
     <use style="fill-opacity:0;stroke:#000000;" x="137.7" xlink:href="#m0f6ad137ea" y="50.515075"/>
    </g>
   </g>
   <g id="line2d_35">
    <path clip-path="url(#pa91724f8e2)" d="M 305.1 239.470228 
L 305.1 242.116364 
" style="fill:none;stroke:#000000;stroke-linecap:square;"/>
   </g>
   <g id="line2d_36">
    <path clip-path="url(#pa91724f8e2)" d="M 305.1 193.504149 
L 305.1 125.660072 
" style="fill:none;stroke:#000000;stroke-linecap:square;"/>
   </g>
   <g id="line2d_37">
    <path clip-path="url(#pa91724f8e2)" d="M 298.8225 242.116364 
L 311.3775 242.116364 
" style="fill:none;stroke:#000000;stroke-linecap:square;"/>
   </g>
   <g id="line2d_38">
    <path clip-path="url(#pa91724f8e2)" d="M 298.8225 125.660072 
L 311.3775 125.660072 
" style="fill:none;stroke:#000000;stroke-linecap:square;"/>
   </g>
   <g id="line2d_39">
    <g clip-path="url(#pa91724f8e2)">
     <use style="fill-opacity:0;stroke:#000000;" x="305.1" xlink:href="#m0f6ad137ea" y="121.905006"/>
     <use style="fill-opacity:0;stroke:#000000;" x="305.1" xlink:href="#m0f6ad137ea" y="123.534504"/>
    </g>
   </g>
   <g id="patch_12">
    <path clip-path="url(#pa91724f8e2)" d="M 125.145 68.374419 
L 150.255 68.374419 
L 150.255 61.612442 
L 125.145 61.612442 
L 125.145 68.374419 
z
" style="fill:#ffffff;stroke:#ff7f0e;stroke-linejoin:miter;stroke-width:2;"/>
   </g>
   <g id="patch_13">
    <path clip-path="url(#pa91724f8e2)" d="M 292.545 239.470228 
L 317.655 239.470228 
L 317.655 193.504149 
L 292.545 193.504149 
L 292.545 239.470228 
z
" style="fill:#ffffff;stroke:#ff7f0e;stroke-linejoin:miter;stroke-width:2;"/>
   </g>
   <g id="line2d_40">
    <path clip-path="url(#pa91724f8e2)" d="M 125.145 63.658129 
L 150.255 63.658129 
" style="fill:none;stroke:#000000;stroke-linecap:square;stroke-width:2;"/>
   </g>
   <g id="line2d_41">
    <path clip-path="url(#pa91724f8e2)" d="M 292.545 227.889268 
L 317.655 227.889268 
" style="fill:none;stroke:#000000;stroke-linecap:square;stroke-width:2;"/>
   </g>
   <g id="patch_14">
    <path d="M 54 252 
L 54 34.56 
" style="fill:none;stroke:#000000;stroke-linecap:square;stroke-linejoin:miter;stroke-width:0.8;"/>
   </g>
   <g id="patch_15">
    <path d="M 388.8 252 
L 388.8 34.56 
" style="fill:none;stroke:#000000;stroke-linecap:square;stroke-linejoin:miter;stroke-width:0.8;"/>
   </g>
   <g id="patch_16">
    <path d="M 54 252 
L 388.8 252 
" style="fill:none;stroke:#000000;stroke-linecap:square;stroke-linejoin:miter;stroke-width:0.8;"/>
   </g>
   <g id="patch_17">
    <path d="M 54 34.56 
L 388.8 34.56 
" style="fill:none;stroke:#000000;stroke-linecap:square;stroke-linejoin:miter;stroke-width:0.8;"/>
   </g>
   <g id="legend_2">
    <g id="patch_18">
     <path d="M 254.595938 309.294125 
L 326.124063 309.294125 
Q 328.124063 309.294125 328.124063 307.294125 
L 328.124063 293.616 
Q 328.124063 291.616 326.124063 291.616 
L 254.595938 291.616 
Q 252.595938 291.616 252.595938 293.616 
L 252.595938 307.294125 
Q 252.595938 309.294125 254.595938 309.294125 
z
" style="fill:#4c4c4c;opacity:0.5;stroke:#4c4c4c;stroke-linejoin:miter;"/>
    </g>
    <g id="patch_19">
     <path d="M 252.595938 307.294125 
L 324.124063 307.294125 
Q 326.124063 307.294125 326.124063 305.294125 
L 326.124063 291.616 
Q 326.124063 289.616 324.124063 289.616 
L 252.595938 289.616 
Q 250.595938 289.616 250.595938 291.616 
L 250.595938 305.294125 
Q 250.595938 307.294125 252.595938 307.294125 
z
" style="fill:#ffffff;stroke:#cccccc;stroke-linejoin:miter;"/>
    </g>
    <g id="patch_20">
     <path d="M 254.595938 301.214437 
L 274.595937 301.214437 
L 274.595937 294.214437 
L 254.595938 294.214437 
z
" style="fill:#ffffff;stroke:#ff7f0e;stroke-linejoin:miter;stroke-width:2;"/>
    </g>
    <g id="text_22">
     <!-- Latency -->
     <g transform="translate(282.595937 301.214437)scale(0.1 -0.1)">
      <use xlink:href="#DejaVuSans-4c"/>
      <use x="55.712891" xlink:href="#DejaVuSans-61"/>
      <use x="116.992188" xlink:href="#DejaVuSans-74"/>
      <use x="156.201172" xlink:href="#DejaVuSans-65"/>
      <use x="217.724609" xlink:href="#DejaVuSans-6e"/>
      <use x="281.103516" xlink:href="#DejaVuSans-63"/>
      <use x="336.083984" xlink:href="#DejaVuSans-79"/>
     </g>
    </g>
   </g>
  </g>
  <g id="text_23">
   <!-- TPS -->
   <g transform="translate(154.44 129.6)scale(0.1 -0.1)">
    <use xlink:href="#DejaVuSans-54"/>
    <use x="61.083984" xlink:href="#DejaVuSans-50"/>
    <use x="121.386719" xlink:href="#DejaVuSans-53"/>
   </g>
  </g>
  <g id="text_24">
   <!-- Med:328.08 -->
   <defs>
    <path d="M 11.71875 12.40625 
L 22.015625 12.40625 
L 22.015625 0 
L 11.71875 0 
z
M 11.71875 51.703125 
L 22.015625 51.703125 
L 22.015625 39.3125 
L 11.71875 39.3125 
z
" id="DejaVuSans-3a"/>
   </defs>
   <g transform="translate(154.44 144)scale(0.1 -0.1)">
    <use xlink:href="#DejaVuSans-4d"/>
    <use x="86.279297" xlink:href="#DejaVuSans-65"/>
    <use x="147.802734" xlink:href="#DejaVuSans-64"/>
    <use x="211.279297" xlink:href="#DejaVuSans-3a"/>
    <use x="244.970703" xlink:href="#DejaVuSans-33"/>
    <use x="308.59375" xlink:href="#DejaVuSans-32"/>
    <use x="372.216797" xlink:href="#DejaVuSans-38"/>
    <use x="435.839844" xlink:href="#DejaVuSans-2e"/>
    <use x="467.626953" xlink:href="#DejaVuSans-30"/>
    <use x="531.25" xlink:href="#DejaVuSans-38"/>
   </g>
  </g>
  <g id="text_25">
   <!-- Mean:327.7 -->
   <g transform="translate(154.44 158.4)scale(0.1 -0.1)">
    <use xlink:href="#DejaVuSans-4d"/>
    <use x="86.279297" xlink:href="#DejaVuSans-65"/>
    <use x="147.802734" xlink:href="#DejaVuSans-61"/>
    <use x="209.082031" xlink:href="#DejaVuSans-6e"/>
    <use x="272.460938" xlink:href="#DejaVuSans-3a"/>
    <use x="306.152344" xlink:href="#DejaVuSans-33"/>
    <use x="369.775391" xlink:href="#DejaVuSans-32"/>
    <use x="433.398438" xlink:href="#DejaVuSans-37"/>
    <use x="497.021484" xlink:href="#DejaVuSans-2e"/>
    <use x="528.808594" xlink:href="#DejaVuSans-37"/>
   </g>
  </g>
  <g id="text_26">
   <!-- Latency -->
   <g transform="translate(154.44 187.2)scale(0.1 -0.1)">
    <use xlink:href="#DejaVuSans-4c"/>
    <use x="55.712891" xlink:href="#DejaVuSans-61"/>
    <use x="116.992188" xlink:href="#DejaVuSans-74"/>
    <use x="156.201172" xlink:href="#DejaVuSans-65"/>
    <use x="217.724609" xlink:href="#DejaVuSans-6e"/>
    <use x="281.103516" xlink:href="#DejaVuSans-63"/>
    <use x="336.083984" xlink:href="#DejaVuSans-79"/>
   </g>
  </g>
  <g id="text_27">
   <!-- Med:2.11 -->
   <g transform="translate(154.44 201.6)scale(0.1 -0.1)">
    <use xlink:href="#DejaVuSans-4d"/>
    <use x="86.279297" xlink:href="#DejaVuSans-65"/>
    <use x="147.802734" xlink:href="#DejaVuSans-64"/>
    <use x="211.279297" xlink:href="#DejaVuSans-3a"/>
    <use x="244.970703" xlink:href="#DejaVuSans-32"/>
    <use x="308.59375" xlink:href="#DejaVuSans-2e"/>
    <use x="340.380859" xlink:href="#DejaVuSans-31"/>
    <use x="404.003906" xlink:href="#DejaVuSans-31"/>
   </g>
  </g>
  <g id="text_28">
   <!-- Mean:2.1 -->
   <g transform="translate(154.44 216)scale(0.1 -0.1)">
    <use xlink:href="#DejaVuSans-4d"/>
    <use x="86.279297" xlink:href="#DejaVuSans-65"/>
    <use x="147.802734" xlink:href="#DejaVuSans-61"/>
    <use x="209.082031" xlink:href="#DejaVuSans-6e"/>
    <use x="272.460938" xlink:href="#DejaVuSans-3a"/>
    <use x="306.152344" xlink:href="#DejaVuSans-32"/>
    <use x="369.775391" xlink:href="#DejaVuSans-2e"/>
    <use x="401.5625" xlink:href="#DejaVuSans-31"/>
   </g>
  </g>
  <g id="text_29">
   <!-- TPS -->
   <g transform="translate(324 129.6)scale(0.1 -0.1)">
    <use xlink:href="#DejaVuSans-54"/>
    <use x="61.083984" xlink:href="#DejaVuSans-50"/>
    <use x="121.386719" xlink:href="#DejaVuSans-53"/>
   </g>
  </g>
  <g id="text_30">
   <!-- Med:702.74 -->
   <g transform="translate(324 144)scale(0.1 -0.1)">
    <use xlink:href="#DejaVuSans-4d"/>
    <use x="86.279297" xlink:href="#DejaVuSans-65"/>
    <use x="147.802734" xlink:href="#DejaVuSans-64"/>
    <use x="211.279297" xlink:href="#DejaVuSans-3a"/>
    <use x="244.970703" xlink:href="#DejaVuSans-37"/>
    <use x="308.59375" xlink:href="#DejaVuSans-30"/>
    <use x="372.216797" xlink:href="#DejaVuSans-32"/>
    <use x="435.839844" xlink:href="#DejaVuSans-2e"/>
    <use x="467.626953" xlink:href="#DejaVuSans-37"/>
    <use x="531.25" xlink:href="#DejaVuSans-34"/>
   </g>
  </g>
  <g id="text_31">
   <!-- Mean:772.2 -->
   <g transform="translate(324 158.4)scale(0.1 -0.1)">
    <use xlink:href="#DejaVuSans-4d"/>
    <use x="86.279297" xlink:href="#DejaVuSans-65"/>
    <use x="147.802734" xlink:href="#DejaVuSans-61"/>
    <use x="209.082031" xlink:href="#DejaVuSans-6e"/>
    <use x="272.460938" xlink:href="#DejaVuSans-3a"/>
    <use x="306.152344" xlink:href="#DejaVuSans-37"/>
    <use x="369.775391" xlink:href="#DejaVuSans-37"/>
    <use x="433.398438" xlink:href="#DejaVuSans-32"/>
    <use x="497.021484" xlink:href="#DejaVuSans-2e"/>
    <use x="528.808594" xlink:href="#DejaVuSans-32"/>
   </g>
  </g>
  <g id="text_32">
   <!-- Latency -->
   <g transform="translate(324 187.2)scale(0.1 -0.1)">
    <use xlink:href="#DejaVuSans-4c"/>
    <use x="55.712891" xlink:href="#DejaVuSans-61"/>
    <use x="116.992188" xlink:href="#DejaVuSans-74"/>
    <use x="156.201172" xlink:href="#DejaVuSans-65"/>
    <use x="217.724609" xlink:href="#DejaVuSans-6e"/>
    <use x="281.103516" xlink:href="#DejaVuSans-63"/>
    <use x="336.083984" xlink:href="#DejaVuSans-79"/>
   </g>
  </g>
  <g id="text_33">
   <!-- Med:0.84 -->
   <g transform="translate(324 201.6)scale(0.1 -0.1)">
    <use xlink:href="#DejaVuSans-4d"/>
    <use x="86.279297" xlink:href="#DejaVuSans-65"/>
    <use x="147.802734" xlink:href="#DejaVuSans-64"/>
    <use x="211.279297" xlink:href="#DejaVuSans-3a"/>
    <use x="244.970703" xlink:href="#DejaVuSans-30"/>
    <use x="308.59375" xlink:href="#DejaVuSans-2e"/>
    <use x="340.380859" xlink:href="#DejaVuSans-38"/>
    <use x="404.003906" xlink:href="#DejaVuSans-34"/>
   </g>
  </g>
  <g id="text_34">
   <!-- Mean:0.96 -->
   <g transform="translate(324 216)scale(0.1 -0.1)">
    <use xlink:href="#DejaVuSans-4d"/>
    <use x="86.279297" xlink:href="#DejaVuSans-65"/>
    <use x="147.802734" xlink:href="#DejaVuSans-61"/>
    <use x="209.082031" xlink:href="#DejaVuSans-6e"/>
    <use x="272.460938" xlink:href="#DejaVuSans-3a"/>
    <use x="306.152344" xlink:href="#DejaVuSans-30"/>
    <use x="369.775391" xlink:href="#DejaVuSans-2e"/>
    <use x="401.5625" xlink:href="#DejaVuSans-39"/>
    <use x="465.185547" xlink:href="#DejaVuSans-36"/>
   </g>
  </g>
 </g>
 <defs>
  <clipPath id="pa91724f8e2">
   <rect height="217.44" width="334.8" x="54" y="34.56"/>
  </clipPath>
 </defs>
</svg>
