<?xml version="1.0" encoding="utf-8" standalone="no"?>
<!DOCTYPE svg PUBLIC "-//W3C//DTD SVG 1.1//EN"
  "http://www.w3.org/Graphics/SVG/1.1/DTD/svg11.dtd">
<!-- Created with matplotlib (http://matplotlib.org/) -->
<svg height="288pt" version="1.1" viewBox="0 0 432 288" width="432pt" xmlns="http://www.w3.org/2000/svg" xmlns:xlink="http://www.w3.org/1999/xlink">
 <defs>
  <style type="text/css">
*{stroke-linecap:butt;stroke-linejoin:round;}
  </style>
 </defs>
 <g id="figure_1">
  <g id="patch_1">
   <path d="M 0 288 
L 432 288 
L 432 0 
L 0 0 
z
" style="fill:#ffffff;"/>
  </g>
  <g id="axes_1">
   <g id="patch_2">
    <path d="M 50.8 210.712 
L 362.45 210.712 
L 362.45 41.8 
L 50.8 41.8 
z
" style="fill:#ffffff;"/>
   </g>
   <g id="matplotlib.axis_1">
    <g id="xtick_1">
     <g id="line2d_1">
      <defs>
       <path d="M 0 0 
L 0 3.5 
" id="m3dbd51e395" style="stroke:#000000;stroke-width:0.8;"/>
      </defs>
      <g>
       <use style="stroke:#000000;stroke-width:0.8;" x="59.183905" xlink:href="#m3dbd51e395" y="210.712"/>
      </g>
     </g>
     <g id="text_1">
      <!-- 0 -->
      <defs>
       <path d="M 31.78125 66.40625 
Q 24.171875 66.40625 20.328125 58.90625 
Q 16.5 51.421875 16.5 36.375 
Q 16.5 21.390625 20.328125 13.890625 
Q 24.171875 6.390625 31.78125 6.390625 
Q 39.453125 6.390625 43.28125 13.890625 
Q 47.125 21.390625 47.125 36.375 
Q 47.125 51.421875 43.28125 58.90625 
Q 39.453125 66.40625 31.78125 66.40625 
z
M 31.78125 74.21875 
Q 44.046875 74.21875 50.515625 64.515625 
Q 56.984375 54.828125 56.984375 36.375 
Q 56.984375 17.96875 50.515625 8.265625 
Q 44.046875 -1.421875 31.78125 -1.421875 
Q 19.53125 -1.421875 13.0625 8.265625 
Q 6.59375 17.96875 6.59375 36.375 
Q 6.59375 54.828125 13.0625 64.515625 
Q 19.53125 74.21875 31.78125 74.21875 
z
" id="DejaVuSans-30"/>
      </defs>
      <g transform="translate(56.002655 225.310437)scale(0.1 -0.1)">
       <use xlink:href="#DejaVuSans-30"/>
      </g>
     </g>
    </g>
    <g id="xtick_2">
     <g id="line2d_2">
      <g>
       <use style="stroke:#000000;stroke-width:0.8;" x="117.003942" xlink:href="#m3dbd51e395" y="210.712"/>
      </g>
     </g>
     <g id="text_2">
      <!-- 10 -->
      <defs>
       <path d="M 12.40625 8.296875 
L 28.515625 8.296875 
L 28.515625 63.921875 
L 10.984375 60.40625 
L 10.984375 69.390625 
L 28.421875 72.90625 
L 38.28125 72.90625 
L 38.28125 8.296875 
L 54.390625 8.296875 
L 54.390625 0 
L 12.40625 0 
z
" id="DejaVuSans-31"/>
      </defs>
      <g transform="translate(110.641442 225.310437)scale(0.1 -0.1)">
       <use xlink:href="#DejaVuSans-31"/>
       <use x="63.623047" xlink:href="#DejaVuSans-30"/>
      </g>
     </g>
    </g>
    <g id="xtick_3">
     <g id="line2d_3">
      <g>
       <use style="stroke:#000000;stroke-width:0.8;" x="174.82398" xlink:href="#m3dbd51e395" y="210.712"/>
      </g>
     </g>
     <g id="text_3">
      <!-- 20 -->
      <defs>
       <path d="M 19.1875 8.296875 
L 53.609375 8.296875 
L 53.609375 0 
L 7.328125 0 
L 7.328125 8.296875 
Q 12.9375 14.109375 22.625 23.890625 
Q 32.328125 33.6875 34.8125 36.53125 
Q 39.546875 41.84375 41.421875 45.53125 
Q 43.3125 49.21875 43.3125 52.78125 
Q 43.3125 58.59375 39.234375 62.25 
Q 35.15625 65.921875 28.609375 65.921875 
Q 23.96875 65.921875 18.8125 64.3125 
Q 13.671875 62.703125 7.8125 59.421875 
L 7.8125 69.390625 
Q 13.765625 71.78125 18.9375 73 
Q 24.125 74.21875 28.421875 74.21875 
Q 39.75 74.21875 46.484375 68.546875 
Q 53.21875 62.890625 53.21875 53.421875 
Q 53.21875 48.921875 51.53125 44.890625 
Q 49.859375 40.875 45.40625 35.40625 
Q 44.1875 33.984375 37.640625 27.21875 
Q 31.109375 20.453125 19.1875 8.296875 
z
" id="DejaVuSans-32"/>
      </defs>
      <g transform="translate(168.46148 225.310437)scale(0.1 -0.1)">
       <use xlink:href="#DejaVuSans-32"/>
       <use x="63.623047" xlink:href="#DejaVuSans-30"/>
      </g>
     </g>
    </g>
    <g id="xtick_4">
     <g id="line2d_4">
      <g>
       <use style="stroke:#000000;stroke-width:0.8;" x="232.644017" xlink:href="#m3dbd51e395" y="210.712"/>
      </g>
     </g>
     <g id="text_4">
      <!-- 30 -->
      <defs>
       <path d="M 40.578125 39.3125 
Q 47.65625 37.796875 51.625 33 
Q 55.609375 28.21875 55.609375 21.1875 
Q 55.609375 10.40625 48.1875 4.484375 
Q 40.765625 -1.421875 27.09375 -1.421875 
Q 22.515625 -1.421875 17.65625 -0.515625 
Q 12.796875 0.390625 7.625 2.203125 
L 7.625 11.71875 
Q 11.71875 9.328125 16.59375 8.109375 
Q 21.484375 6.890625 26.8125 6.890625 
Q 36.078125 6.890625 40.9375 10.546875 
Q 45.796875 14.203125 45.796875 21.1875 
Q 45.796875 27.640625 41.28125 31.265625 
Q 36.765625 34.90625 28.71875 34.90625 
L 20.21875 34.90625 
L 20.21875 43.015625 
L 29.109375 43.015625 
Q 36.375 43.015625 40.234375 45.921875 
Q 44.09375 48.828125 44.09375 54.296875 
Q 44.09375 59.90625 40.109375 62.90625 
Q 36.140625 65.921875 28.71875 65.921875 
Q 24.65625 65.921875 20.015625 65.03125 
Q 15.375 64.15625 9.8125 62.3125 
L 9.8125 71.09375 
Q 15.4375 72.65625 20.34375 73.4375 
Q 25.25 74.21875 29.59375 74.21875 
Q 40.828125 74.21875 47.359375 69.109375 
Q 53.90625 64.015625 53.90625 55.328125 
Q 53.90625 49.265625 50.4375 45.09375 
Q 46.96875 40.921875 40.578125 39.3125 
z
" id="DejaVuSans-33"/>
      </defs>
      <g transform="translate(226.281517 225.310437)scale(0.1 -0.1)">
       <use xlink:href="#DejaVuSans-33"/>
       <use x="63.623047" xlink:href="#DejaVuSans-30"/>
      </g>
     </g>
    </g>
    <g id="xtick_5">
     <g id="line2d_5">
      <g>
       <use style="stroke:#000000;stroke-width:0.8;" x="290.464054" xlink:href="#m3dbd51e395" y="210.712"/>
      </g>
     </g>
     <g id="text_5">
      <!-- 40 -->
      <defs>
       <path d="M 37.796875 64.3125 
L 12.890625 25.390625 
L 37.796875 25.390625 
z
M 35.203125 72.90625 
L 47.609375 72.90625 
L 47.609375 25.390625 
L 58.015625 25.390625 
L 58.015625 17.1875 
L 47.609375 17.1875 
L 47.609375 0 
L 37.796875 0 
L 37.796875 17.1875 
L 4.890625 17.1875 
L 4.890625 26.703125 
z
" id="DejaVuSans-34"/>
      </defs>
      <g transform="translate(284.101554 225.310437)scale(0.1 -0.1)">
       <use xlink:href="#DejaVuSans-34"/>
       <use x="63.623047" xlink:href="#DejaVuSans-30"/>
      </g>
     </g>
    </g>
    <g id="xtick_6">
     <g id="line2d_6">
      <g>
       <use style="stroke:#000000;stroke-width:0.8;" x="348.284091" xlink:href="#m3dbd51e395" y="210.712"/>
      </g>
     </g>
     <g id="text_6">
      <!-- 50 -->
      <defs>
       <path d="M 10.796875 72.90625 
L 49.515625 72.90625 
L 49.515625 64.59375 
L 19.828125 64.59375 
L 19.828125 46.734375 
Q 21.96875 47.46875 24.109375 47.828125 
Q 26.265625 48.1875 28.421875 48.1875 
Q 40.625 48.1875 47.75 41.5 
Q 54.890625 34.8125 54.890625 23.390625 
Q 54.890625 11.625 47.5625 5.09375 
Q 40.234375 -1.421875 26.90625 -1.421875 
Q 22.3125 -1.421875 17.546875 -0.640625 
Q 12.796875 0.140625 7.71875 1.703125 
L 7.71875 11.625 
Q 12.109375 9.234375 16.796875 8.0625 
Q 21.484375 6.890625 26.703125 6.890625 
Q 35.15625 6.890625 40.078125 11.328125 
Q 45.015625 15.765625 45.015625 23.390625 
Q 45.015625 31 40.078125 35.4375 
Q 35.15625 39.890625 26.703125 39.890625 
Q 22.75 39.890625 18.8125 39.015625 
Q 14.890625 38.140625 10.796875 36.28125 
z
" id="DejaVuSans-35"/>
      </defs>
      <g transform="translate(341.921591 225.310437)scale(0.1 -0.1)">
       <use xlink:href="#DejaVuSans-35"/>
       <use x="63.623047" xlink:href="#DejaVuSans-30"/>
      </g>
     </g>
    </g>
    <g id="text_7">
     <!-- Measurement ID -->
     <defs>
      <path d="M 9.8125 72.90625 
L 24.515625 72.90625 
L 43.109375 23.296875 
L 61.8125 72.90625 
L 76.515625 72.90625 
L 76.515625 0 
L 66.890625 0 
L 66.890625 64.015625 
L 48.09375 14.015625 
L 38.1875 14.015625 
L 19.390625 64.015625 
L 19.390625 0 
L 9.8125 0 
z
" id="DejaVuSans-4d"/>
      <path d="M 56.203125 29.59375 
L 56.203125 25.203125 
L 14.890625 25.203125 
Q 15.484375 15.921875 20.484375 11.0625 
Q 25.484375 6.203125 34.421875 6.203125 
Q 39.59375 6.203125 44.453125 7.46875 
Q 49.3125 8.734375 54.109375 11.28125 
L 54.109375 2.78125 
Q 49.265625 0.734375 44.1875 -0.34375 
Q 39.109375 -1.421875 33.890625 -1.421875 
Q 20.796875 -1.421875 13.15625 6.1875 
Q 5.515625 13.8125 5.515625 26.8125 
Q 5.515625 40.234375 12.765625 48.109375 
Q 20.015625 56 32.328125 56 
Q 43.359375 56 49.78125 48.890625 
Q 56.203125 41.796875 56.203125 29.59375 
z
M 47.21875 32.234375 
Q 47.125 39.59375 43.09375 43.984375 
Q 39.0625 48.390625 32.421875 48.390625 
Q 24.90625 48.390625 20.390625 44.140625 
Q 15.875 39.890625 15.1875 32.171875 
z
" id="DejaVuSans-65"/>
      <path d="M 34.28125 27.484375 
Q 23.390625 27.484375 19.1875 25 
Q 14.984375 22.515625 14.984375 16.5 
Q 14.984375 11.71875 18.140625 8.90625 
Q 21.296875 6.109375 26.703125 6.109375 
Q 34.1875 6.109375 38.703125 11.40625 
Q 43.21875 16.703125 43.21875 25.484375 
L 43.21875 27.484375 
z
M 52.203125 31.203125 
L 52.203125 0 
L 43.21875 0 
L 43.21875 8.296875 
Q 40.140625 3.328125 35.546875 0.953125 
Q 30.953125 -1.421875 24.3125 -1.421875 
Q 15.921875 -1.421875 10.953125 3.296875 
Q 6 8.015625 6 15.921875 
Q 6 25.140625 12.171875 29.828125 
Q 18.359375 34.515625 30.609375 34.515625 
L 43.21875 34.515625 
L 43.21875 35.40625 
Q 43.21875 41.609375 39.140625 45 
Q 35.0625 48.390625 27.6875 48.390625 
Q 23 48.390625 18.546875 47.265625 
Q 14.109375 46.140625 10.015625 43.890625 
L 10.015625 52.203125 
Q 14.9375 54.109375 19.578125 55.046875 
Q 24.21875 56 28.609375 56 
Q 40.484375 56 46.34375 49.84375 
Q 52.203125 43.703125 52.203125 31.203125 
z
" id="DejaVuSans-61"/>
      <path d="M 44.28125 53.078125 
L 44.28125 44.578125 
Q 40.484375 46.53125 36.375 47.5 
Q 32.28125 48.484375 27.875 48.484375 
Q 21.1875 48.484375 17.84375 46.4375 
Q 14.5 44.390625 14.5 40.28125 
Q 14.5 37.15625 16.890625 35.375 
Q 19.28125 33.59375 26.515625 31.984375 
L 29.59375 31.296875 
Q 39.15625 29.25 43.1875 25.515625 
Q 47.21875 21.78125 47.21875 15.09375 
Q 47.21875 7.46875 41.1875 3.015625 
Q 35.15625 -1.421875 24.609375 -1.421875 
Q 20.21875 -1.421875 15.453125 -0.5625 
Q 10.6875 0.296875 5.421875 2 
L 5.421875 11.28125 
Q 10.40625 8.6875 15.234375 7.390625 
Q 20.0625 6.109375 24.8125 6.109375 
Q 31.15625 6.109375 34.5625 8.28125 
Q 37.984375 10.453125 37.984375 14.40625 
Q 37.984375 18.0625 35.515625 20.015625 
Q 33.0625 21.96875 24.703125 23.78125 
L 21.578125 24.515625 
Q 13.234375 26.265625 9.515625 29.90625 
Q 5.8125 33.546875 5.8125 39.890625 
Q 5.8125 47.609375 11.28125 51.796875 
Q 16.75 56 26.8125 56 
Q 31.78125 56 36.171875 55.265625 
Q 40.578125 54.546875 44.28125 53.078125 
z
" id="DejaVuSans-73"/>
      <path d="M 8.5 21.578125 
L 8.5 54.6875 
L 17.484375 54.6875 
L 17.484375 21.921875 
Q 17.484375 14.15625 20.5 10.265625 
Q 23.53125 6.390625 29.59375 6.390625 
Q 36.859375 6.390625 41.078125 11.03125 
Q 45.3125 15.671875 45.3125 23.6875 
L 45.3125 54.6875 
L 54.296875 54.6875 
L 54.296875 0 
L 45.3125 0 
L 45.3125 8.40625 
Q 42.046875 3.421875 37.71875 1 
Q 33.40625 -1.421875 27.6875 -1.421875 
Q 18.265625 -1.421875 13.375 4.4375 
Q 8.5 10.296875 8.5 21.578125 
z
M 31.109375 56 
z
" id="DejaVuSans-75"/>
      <path d="M 41.109375 46.296875 
Q 39.59375 47.171875 37.8125 47.578125 
Q 36.03125 48 33.890625 48 
Q 26.265625 48 22.1875 43.046875 
Q 18.109375 38.09375 18.109375 28.8125 
L 18.109375 0 
L 9.078125 0 
L 9.078125 54.6875 
L 18.109375 54.6875 
L 18.109375 46.1875 
Q 20.953125 51.171875 25.484375 53.578125 
Q 30.03125 56 36.53125 56 
Q 37.453125 56 38.578125 55.875 
Q 39.703125 55.765625 41.0625 55.515625 
z
" id="DejaVuSans-72"/>
      <path d="M 52 44.1875 
Q 55.375 50.25 60.0625 53.125 
Q 64.75 56 71.09375 56 
Q 79.640625 56 84.28125 50.015625 
Q 88.921875 44.046875 88.921875 33.015625 
L 88.921875 0 
L 79.890625 0 
L 79.890625 32.71875 
Q 79.890625 40.578125 77.09375 44.375 
Q 74.3125 48.1875 68.609375 48.1875 
Q 61.625 48.1875 57.5625 43.546875 
Q 53.515625 38.921875 53.515625 30.90625 
L 53.515625 0 
L 44.484375 0 
L 44.484375 32.71875 
Q 44.484375 40.625 41.703125 44.40625 
Q 38.921875 48.1875 33.109375 48.1875 
Q 26.21875 48.1875 22.15625 43.53125 
Q 18.109375 38.875 18.109375 30.90625 
L 18.109375 0 
L 9.078125 0 
L 9.078125 54.6875 
L 18.109375 54.6875 
L 18.109375 46.1875 
Q 21.1875 51.21875 25.484375 53.609375 
Q 29.78125 56 35.6875 56 
Q 41.65625 56 45.828125 52.96875 
Q 50 49.953125 52 44.1875 
z
" id="DejaVuSans-6d"/>
      <path d="M 54.890625 33.015625 
L 54.890625 0 
L 45.90625 0 
L 45.90625 32.71875 
Q 45.90625 40.484375 42.875 44.328125 
Q 39.84375 48.1875 33.796875 48.1875 
Q 26.515625 48.1875 22.3125 43.546875 
Q 18.109375 38.921875 18.109375 30.90625 
L 18.109375 0 
L 9.078125 0 
L 9.078125 54.6875 
L 18.109375 54.6875 
L 18.109375 46.1875 
Q 21.34375 51.125 25.703125 53.5625 
Q 30.078125 56 35.796875 56 
Q 45.21875 56 50.046875 50.171875 
Q 54.890625 44.34375 54.890625 33.015625 
z
" id="DejaVuSans-6e"/>
      <path d="M 18.3125 70.21875 
L 18.3125 54.6875 
L 36.8125 54.6875 
L 36.8125 47.703125 
L 18.3125 47.703125 
L 18.3125 18.015625 
Q 18.3125 11.328125 20.140625 9.421875 
Q 21.96875 7.515625 27.59375 7.515625 
L 36.8125 7.515625 
L 36.8125 0 
L 27.59375 0 
Q 17.1875 0 13.234375 3.875 
Q 9.28125 7.765625 9.28125 18.015625 
L 9.28125 47.703125 
L 2.6875 47.703125 
L 2.6875 54.6875 
L 9.28125 54.6875 
L 9.28125 70.21875 
z
" id="DejaVuSans-74"/>
      <path id="DejaVuSans-20"/>
      <path d="M 9.8125 72.90625 
L 19.671875 72.90625 
L 19.671875 0 
L 9.8125 0 
z
" id="DejaVuSans-49"/>
      <path d="M 19.671875 64.796875 
L 19.671875 8.109375 
L 31.59375 8.109375 
Q 46.6875 8.109375 53.6875 14.9375 
Q 60.6875 21.78125 60.6875 36.53125 
Q 60.6875 51.171875 53.6875 57.984375 
Q 46.6875 64.796875 31.59375 64.796875 
z
M 9.8125 72.90625 
L 30.078125 72.90625 
Q 51.265625 72.90625 61.171875 64.09375 
Q 71.09375 55.28125 71.09375 36.53125 
Q 71.09375 17.671875 61.125 8.828125 
Q 51.171875 0 30.078125 0 
L 9.8125 0 
z
" id="DejaVuSans-44"/>
     </defs>
     <g transform="translate(165.276563 238.988563)scale(0.1 -0.1)">
      <use xlink:href="#DejaVuSans-4d"/>
      <use x="86.279297" xlink:href="#DejaVuSans-65"/>
      <use x="147.802734" xlink:href="#DejaVuSans-61"/>
      <use x="209.082031" xlink:href="#DejaVuSans-73"/>
      <use x="261.181641" xlink:href="#DejaVuSans-75"/>
      <use x="324.560547" xlink:href="#DejaVuSans-72"/>
      <use x="365.642578" xlink:href="#DejaVuSans-65"/>
      <use x="427.166016" xlink:href="#DejaVuSans-6d"/>
      <use x="524.578125" xlink:href="#DejaVuSans-65"/>
      <use x="586.101562" xlink:href="#DejaVuSans-6e"/>
      <use x="649.480469" xlink:href="#DejaVuSans-74"/>
      <use x="688.689453" xlink:href="#DejaVuSans-20"/>
      <use x="720.476562" xlink:href="#DejaVuSans-49"/>
      <use x="749.96875" xlink:href="#DejaVuSans-44"/>
     </g>
    </g>
   </g>
   <g id="matplotlib.axis_2">
    <g id="ytick_1">
     <g id="line2d_7">
      <defs>
       <path d="M 0 0 
L -3.5 0 
" id="mb578582277" style="stroke:#000000;stroke-width:0.8;"/>
      </defs>
      <g>
       <use style="stroke:#000000;stroke-width:0.8;" x="50.8" xlink:href="#mb578582277" y="199.102705"/>
      </g>
     </g>
     <g id="text_8">
      <!-- 20 -->
      <g transform="translate(31.075 202.901924)scale(0.1 -0.1)">
       <use xlink:href="#DejaVuSans-32"/>
       <use x="63.623047" xlink:href="#DejaVuSans-30"/>
      </g>
     </g>
    </g>
    <g id="ytick_2">
     <g id="line2d_8">
      <g>
       <use style="stroke:#000000;stroke-width:0.8;" x="50.8" xlink:href="#mb578582277" y="169.823215"/>
      </g>
     </g>
     <g id="text_9">
      <!-- 40 -->
      <g transform="translate(31.075 173.622433)scale(0.1 -0.1)">
       <use xlink:href="#DejaVuSans-34"/>
       <use x="63.623047" xlink:href="#DejaVuSans-30"/>
      </g>
     </g>
    </g>
    <g id="ytick_3">
     <g id="line2d_9">
      <g>
       <use style="stroke:#000000;stroke-width:0.8;" x="50.8" xlink:href="#mb578582277" y="140.543724"/>
      </g>
     </g>
     <g id="text_10">
      <!-- 60 -->
      <defs>
       <path d="M 33.015625 40.375 
Q 26.375 40.375 22.484375 35.828125 
Q 18.609375 31.296875 18.609375 23.390625 
Q 18.609375 15.53125 22.484375 10.953125 
Q 26.375 6.390625 33.015625 6.390625 
Q 39.65625 6.390625 43.53125 10.953125 
Q 47.40625 15.53125 47.40625 23.390625 
Q 47.40625 31.296875 43.53125 35.828125 
Q 39.65625 40.375 33.015625 40.375 
z
M 52.59375 71.296875 
L 52.59375 62.3125 
Q 48.875 64.0625 45.09375 64.984375 
Q 41.3125 65.921875 37.59375 65.921875 
Q 27.828125 65.921875 22.671875 59.328125 
Q 17.53125 52.734375 16.796875 39.40625 
Q 19.671875 43.65625 24.015625 45.921875 
Q 28.375 48.1875 33.59375 48.1875 
Q 44.578125 48.1875 50.953125 41.515625 
Q 57.328125 34.859375 57.328125 23.390625 
Q 57.328125 12.15625 50.6875 5.359375 
Q 44.046875 -1.421875 33.015625 -1.421875 
Q 20.359375 -1.421875 13.671875 8.265625 
Q 6.984375 17.96875 6.984375 36.375 
Q 6.984375 53.65625 15.1875 63.9375 
Q 23.390625 74.21875 37.203125 74.21875 
Q 40.921875 74.21875 44.703125 73.484375 
Q 48.484375 72.75 52.59375 71.296875 
z
" id="DejaVuSans-36"/>
      </defs>
      <g transform="translate(31.075 144.342943)scale(0.1 -0.1)">
       <use xlink:href="#DejaVuSans-36"/>
       <use x="63.623047" xlink:href="#DejaVuSans-30"/>
      </g>
     </g>
    </g>
    <g id="ytick_4">
     <g id="line2d_10">
      <g>
       <use style="stroke:#000000;stroke-width:0.8;" x="50.8" xlink:href="#mb578582277" y="111.264234"/>
      </g>
     </g>
     <g id="text_11">
      <!-- 80 -->
      <defs>
       <path d="M 31.78125 34.625 
Q 24.75 34.625 20.71875 30.859375 
Q 16.703125 27.09375 16.703125 20.515625 
Q 16.703125 13.921875 20.71875 10.15625 
Q 24.75 6.390625 31.78125 6.390625 
Q 38.8125 6.390625 42.859375 10.171875 
Q 46.921875 13.96875 46.921875 20.515625 
Q 46.921875 27.09375 42.890625 30.859375 
Q 38.875 34.625 31.78125 34.625 
z
M 21.921875 38.8125 
Q 15.578125 40.375 12.03125 44.71875 
Q 8.5 49.078125 8.5 55.328125 
Q 8.5 64.0625 14.71875 69.140625 
Q 20.953125 74.21875 31.78125 74.21875 
Q 42.671875 74.21875 48.875 69.140625 
Q 55.078125 64.0625 55.078125 55.328125 
Q 55.078125 49.078125 51.53125 44.71875 
Q 48 40.375 41.703125 38.8125 
Q 48.828125 37.15625 52.796875 32.3125 
Q 56.78125 27.484375 56.78125 20.515625 
Q 56.78125 9.90625 50.3125 4.234375 
Q 43.84375 -1.421875 31.78125 -1.421875 
Q 19.734375 -1.421875 13.25 4.234375 
Q 6.78125 9.90625 6.78125 20.515625 
Q 6.78125 27.484375 10.78125 32.3125 
Q 14.796875 37.15625 21.921875 38.8125 
z
M 18.3125 54.390625 
Q 18.3125 48.734375 21.84375 45.5625 
Q 25.390625 42.390625 31.78125 42.390625 
Q 38.140625 42.390625 41.71875 45.5625 
Q 45.3125 48.734375 45.3125 54.390625 
Q 45.3125 60.0625 41.71875 63.234375 
Q 38.140625 66.40625 31.78125 66.40625 
Q 25.390625 66.40625 21.84375 63.234375 
Q 18.3125 60.0625 18.3125 54.390625 
z
" id="DejaVuSans-38"/>
      </defs>
      <g transform="translate(31.075 115.063453)scale(0.1 -0.1)">
       <use xlink:href="#DejaVuSans-38"/>
       <use x="63.623047" xlink:href="#DejaVuSans-30"/>
      </g>
     </g>
    </g>
    <g id="ytick_5">
     <g id="line2d_11">
      <g>
       <use style="stroke:#000000;stroke-width:0.8;" x="50.8" xlink:href="#mb578582277" y="81.984744"/>
      </g>
     </g>
     <g id="text_12">
      <!-- 100 -->
      <g transform="translate(24.7125 85.783962)scale(0.1 -0.1)">
       <use xlink:href="#DejaVuSans-31"/>
       <use x="63.623047" xlink:href="#DejaVuSans-30"/>
       <use x="127.246094" xlink:href="#DejaVuSans-30"/>
      </g>
     </g>
    </g>
    <g id="ytick_6">
     <g id="line2d_12">
      <g>
       <use style="stroke:#000000;stroke-width:0.8;" x="50.8" xlink:href="#mb578582277" y="52.705253"/>
      </g>
     </g>
     <g id="text_13">
      <!-- 120 -->
      <g transform="translate(24.7125 56.504472)scale(0.1 -0.1)">
       <use xlink:href="#DejaVuSans-31"/>
       <use x="63.623047" xlink:href="#DejaVuSans-32"/>
       <use x="127.246094" xlink:href="#DejaVuSans-30"/>
      </g>
     </g>
    </g>
    <g id="text_14">
     <!-- Average Transactions Per Second (TPS) -->
     <defs>
      <path d="M 34.1875 63.1875 
L 20.796875 26.90625 
L 47.609375 26.90625 
z
M 28.609375 72.90625 
L 39.796875 72.90625 
L 67.578125 0 
L 57.328125 0 
L 50.6875 18.703125 
L 17.828125 18.703125 
L 11.1875 0 
L 0.78125 0 
z
" id="DejaVuSans-41"/>
      <path d="M 2.984375 54.6875 
L 12.5 54.6875 
L 29.59375 8.796875 
L 46.6875 54.6875 
L 56.203125 54.6875 
L 35.6875 0 
L 23.484375 0 
z
" id="DejaVuSans-76"/>
      <path d="M 45.40625 27.984375 
Q 45.40625 37.75 41.375 43.109375 
Q 37.359375 48.484375 30.078125 48.484375 
Q 22.859375 48.484375 18.828125 43.109375 
Q 14.796875 37.75 14.796875 27.984375 
Q 14.796875 18.265625 18.828125 12.890625 
Q 22.859375 7.515625 30.078125 7.515625 
Q 37.359375 7.515625 41.375 12.890625 
Q 45.40625 18.265625 45.40625 27.984375 
z
M 54.390625 6.78125 
Q 54.390625 -7.171875 48.1875 -13.984375 
Q 42 -20.796875 29.203125 -20.796875 
Q 24.46875 -20.796875 20.265625 -20.09375 
Q 16.0625 -19.390625 12.109375 -17.921875 
L 12.109375 -9.1875 
Q 16.0625 -11.328125 19.921875 -12.34375 
Q 23.78125 -13.375 27.78125 -13.375 
Q 36.625 -13.375 41.015625 -8.765625 
Q 45.40625 -4.15625 45.40625 5.171875 
L 45.40625 9.625 
Q 42.625 4.78125 38.28125 2.390625 
Q 33.9375 0 27.875 0 
Q 17.828125 0 11.671875 7.65625 
Q 5.515625 15.328125 5.515625 27.984375 
Q 5.515625 40.671875 11.671875 48.328125 
Q 17.828125 56 27.875 56 
Q 33.9375 56 38.28125 53.609375 
Q 42.625 51.21875 45.40625 46.390625 
L 45.40625 54.6875 
L 54.390625 54.6875 
z
" id="DejaVuSans-67"/>
      <path d="M -0.296875 72.90625 
L 61.375 72.90625 
L 61.375 64.59375 
L 35.5 64.59375 
L 35.5 0 
L 25.59375 0 
L 25.59375 64.59375 
L -0.296875 64.59375 
z
" id="DejaVuSans-54"/>
      <path d="M 48.78125 52.59375 
L 48.78125 44.1875 
Q 44.96875 46.296875 41.140625 47.34375 
Q 37.3125 48.390625 33.40625 48.390625 
Q 24.65625 48.390625 19.8125 42.84375 
Q 14.984375 37.3125 14.984375 27.296875 
Q 14.984375 17.28125 19.8125 11.734375 
Q 24.65625 6.203125 33.40625 6.203125 
Q 37.3125 6.203125 41.140625 7.25 
Q 44.96875 8.296875 48.78125 10.40625 
L 48.78125 2.09375 
Q 45.015625 0.34375 40.984375 -0.53125 
Q 36.96875 -1.421875 32.421875 -1.421875 
Q 20.0625 -1.421875 12.78125 6.34375 
Q 5.515625 14.109375 5.515625 27.296875 
Q 5.515625 40.671875 12.859375 48.328125 
Q 20.21875 56 33.015625 56 
Q 37.15625 56 41.109375 55.140625 
Q 45.0625 54.296875 48.78125 52.59375 
z
" id="DejaVuSans-63"/>
      <path d="M 9.421875 54.6875 
L 18.40625 54.6875 
L 18.40625 0 
L 9.421875 0 
z
M 9.421875 75.984375 
L 18.40625 75.984375 
L 18.40625 64.59375 
L 9.421875 64.59375 
z
" id="DejaVuSans-69"/>
      <path d="M 30.609375 48.390625 
Q 23.390625 48.390625 19.1875 42.75 
Q 14.984375 37.109375 14.984375 27.296875 
Q 14.984375 17.484375 19.15625 11.84375 
Q 23.34375 6.203125 30.609375 6.203125 
Q 37.796875 6.203125 41.984375 11.859375 
Q 46.1875 17.53125 46.1875 27.296875 
Q 46.1875 37.015625 41.984375 42.703125 
Q 37.796875 48.390625 30.609375 48.390625 
z
M 30.609375 56 
Q 42.328125 56 49.015625 48.375 
Q 55.71875 40.765625 55.71875 27.296875 
Q 55.71875 13.875 49.015625 6.21875 
Q 42.328125 -1.421875 30.609375 -1.421875 
Q 18.84375 -1.421875 12.171875 6.21875 
Q 5.515625 13.875 5.515625 27.296875 
Q 5.515625 40.765625 12.171875 48.375 
Q 18.84375 56 30.609375 56 
z
" id="DejaVuSans-6f"/>
      <path d="M 19.671875 64.796875 
L 19.671875 37.40625 
L 32.078125 37.40625 
Q 38.96875 37.40625 42.71875 40.96875 
Q 46.484375 44.53125 46.484375 51.125 
Q 46.484375 57.671875 42.71875 61.234375 
Q 38.96875 64.796875 32.078125 64.796875 
z
M 9.8125 72.90625 
L 32.078125 72.90625 
Q 44.34375 72.90625 50.609375 67.359375 
Q 56.890625 61.8125 56.890625 51.125 
Q 56.890625 40.328125 50.609375 34.8125 
Q 44.34375 29.296875 32.078125 29.296875 
L 19.671875 29.296875 
L 19.671875 0 
L 9.8125 0 
z
" id="DejaVuSans-50"/>
      <path d="M 53.515625 70.515625 
L 53.515625 60.890625 
Q 47.90625 63.578125 42.921875 64.890625 
Q 37.9375 66.21875 33.296875 66.21875 
Q 25.25 66.21875 20.875 63.09375 
Q 16.5 59.96875 16.5 54.203125 
Q 16.5 49.359375 19.40625 46.890625 
Q 22.3125 44.4375 30.421875 42.921875 
L 36.375 41.703125 
Q 47.40625 39.59375 52.65625 34.296875 
Q 57.90625 29 57.90625 20.125 
Q 57.90625 9.515625 50.796875 4.046875 
Q 43.703125 -1.421875 29.984375 -1.421875 
Q 24.8125 -1.421875 18.96875 -0.25 
Q 13.140625 0.921875 6.890625 3.21875 
L 6.890625 13.375 
Q 12.890625 10.015625 18.65625 8.296875 
Q 24.421875 6.59375 29.984375 6.59375 
Q 38.421875 6.59375 43.015625 9.90625 
Q 47.609375 13.234375 47.609375 19.390625 
Q 47.609375 24.75 44.3125 27.78125 
Q 41.015625 30.8125 33.5 32.328125 
L 27.484375 33.5 
Q 16.453125 35.6875 11.515625 40.375 
Q 6.59375 45.0625 6.59375 53.421875 
Q 6.59375 63.09375 13.40625 68.65625 
Q 20.21875 74.21875 32.171875 74.21875 
Q 37.3125 74.21875 42.625 73.28125 
Q 47.953125 72.359375 53.515625 70.515625 
z
" id="DejaVuSans-53"/>
      <path d="M 45.40625 46.390625 
L 45.40625 75.984375 
L 54.390625 75.984375 
L 54.390625 0 
L 45.40625 0 
L 45.40625 8.203125 
Q 42.578125 3.328125 38.25 0.953125 
Q 33.9375 -1.421875 27.875 -1.421875 
Q 17.96875 -1.421875 11.734375 6.484375 
Q 5.515625 14.40625 5.515625 27.296875 
Q 5.515625 40.1875 11.734375 48.09375 
Q 17.96875 56 27.875 56 
Q 33.9375 56 38.25 53.625 
Q 42.578125 51.265625 45.40625 46.390625 
z
M 14.796875 27.296875 
Q 14.796875 17.390625 18.875 11.75 
Q 22.953125 6.109375 30.078125 6.109375 
Q 37.203125 6.109375 41.296875 11.75 
Q 45.40625 17.390625 45.40625 27.296875 
Q 45.40625 37.203125 41.296875 42.84375 
Q 37.203125 48.484375 30.078125 48.484375 
Q 22.953125 48.484375 18.875 42.84375 
Q 14.796875 37.203125 14.796875 27.296875 
z
" id="DejaVuSans-64"/>
      <path d="M 31 75.875 
Q 24.46875 64.65625 21.28125 53.65625 
Q 18.109375 42.671875 18.109375 31.390625 
Q 18.109375 20.125 21.3125 9.0625 
Q 24.515625 -2 31 -13.1875 
L 23.1875 -13.1875 
Q 15.875 -1.703125 12.234375 9.375 
Q 8.59375 20.453125 8.59375 31.390625 
Q 8.59375 42.28125 12.203125 53.3125 
Q 15.828125 64.359375 23.1875 75.875 
z
" id="DejaVuSans-28"/>
      <path d="M 8.015625 75.875 
L 15.828125 75.875 
Q 23.140625 64.359375 26.78125 53.3125 
Q 30.421875 42.28125 30.421875 31.390625 
Q 30.421875 20.453125 26.78125 9.375 
Q 23.140625 -1.703125 15.828125 -13.1875 
L 8.015625 -13.1875 
Q 14.5 -2 17.703125 9.0625 
Q 20.90625 20.125 20.90625 31.390625 
Q 20.90625 42.671875 17.703125 53.65625 
Q 14.5 64.65625 8.015625 75.875 
z
" id="DejaVuSans-29"/>
     </defs>
     <g transform="translate(18.632813 225.057562)rotate(-90)scale(0.1 -0.1)">
      <use xlink:href="#DejaVuSans-41"/>
      <use x="68.330078" xlink:href="#DejaVuSans-76"/>
      <use x="127.509766" xlink:href="#DejaVuSans-65"/>
      <use x="189.033203" xlink:href="#DejaVuSans-72"/>
      <use x="230.146484" xlink:href="#DejaVuSans-61"/>
      <use x="291.425781" xlink:href="#DejaVuSans-67"/>
      <use x="354.902344" xlink:href="#DejaVuSans-65"/>
      <use x="416.425781" xlink:href="#DejaVuSans-20"/>
      <use x="448.212891" xlink:href="#DejaVuSans-54"/>
      <use x="509.078125" xlink:href="#DejaVuSans-72"/>
      <use x="550.191406" xlink:href="#DejaVuSans-61"/>
      <use x="611.470703" xlink:href="#DejaVuSans-6e"/>
      <use x="674.849609" xlink:href="#DejaVuSans-73"/>
      <use x="726.949219" xlink:href="#DejaVuSans-61"/>
      <use x="788.228516" xlink:href="#DejaVuSans-63"/>
      <use x="843.208984" xlink:href="#DejaVuSans-74"/>
      <use x="882.417969" xlink:href="#DejaVuSans-69"/>
      <use x="910.201172" xlink:href="#DejaVuSans-6f"/>
      <use x="971.382812" xlink:href="#DejaVuSans-6e"/>
      <use x="1034.761719" xlink:href="#DejaVuSans-73"/>
      <use x="1086.861328" xlink:href="#DejaVuSans-20"/>
      <use x="1118.648438" xlink:href="#DejaVuSans-50"/>
      <use x="1178.904297" xlink:href="#DejaVuSans-65"/>
      <use x="1240.427734" xlink:href="#DejaVuSans-72"/>
      <use x="1281.541016" xlink:href="#DejaVuSans-20"/>
      <use x="1313.328125" xlink:href="#DejaVuSans-53"/>
      <use x="1376.804688" xlink:href="#DejaVuSans-65"/>
      <use x="1438.328125" xlink:href="#DejaVuSans-63"/>
      <use x="1493.308594" xlink:href="#DejaVuSans-6f"/>
      <use x="1554.490234" xlink:href="#DejaVuSans-6e"/>
      <use x="1617.869141" xlink:href="#DejaVuSans-64"/>
      <use x="1681.345703" xlink:href="#DejaVuSans-20"/>
      <use x="1713.132812" xlink:href="#DejaVuSans-28"/>
      <use x="1752.146484" xlink:href="#DejaVuSans-54"/>
      <use x="1813.230469" xlink:href="#DejaVuSans-50"/>
      <use x="1873.533203" xlink:href="#DejaVuSans-53"/>
      <use x="1937.009766" xlink:href="#DejaVuSans-29"/>
     </g>
    </g>
   </g>
   <g id="line2d_13">
    <path clip-path="url(#p76f2304746)" d="M 64.965909 49.477818 
L 70.747913 145.479737 
L 76.529917 129.930647 
L 82.31192 126.68905 
L 88.093924 93.403907 
L 93.875928 154.896877 
L 99.657931 130.64054 
L 105.439935 108.08848 
L 111.221939 97.891553 
L 117.003942 76.533371 
L 122.785946 142.814686 
L 128.56795 105.843104 
L 134.349954 89.498359 
L 140.131957 132.131405 
L 145.913961 132.106086 
L 151.695965 103.915734 
L 157.477968 85.916789 
L 163.259972 124.006428 
L 169.041976 114.436483 
L 174.82398 129.089295 
L 180.605983 76.249335 
L 186.387987 142.819687 
L 192.169991 123.655497 
L 197.951994 195.209565 
L 203.733998 94.55145 
L 209.516002 127.979307 
L 215.298006 128.404423 
L 221.080009 124.994164 
L 226.862013 97.131118 
L 232.644017 127.43236 
L 238.42602 134.47748 
L 244.208024 130.359127 
L 249.990028 110.557284 
L 255.772032 173.522924 
L 261.554035 203.034182 
L 267.336039 118.093321 
L 273.118043 129.871024 
L 278.900046 143.73982 
L 284.68205 121.374336 
L 290.464054 125.970547 
L 296.246058 119.601209 
L 302.028061 141.437516 
L 307.810065 139.338067 
L 313.592069 150.316045 
L 319.374072 126.042138 
L 325.156076 134.825542 
L 330.93808 131.230791 
L 336.720083 123.95431 
L 342.502087 140.12184 
L 348.284091 140.724299 
" style="fill:none;stroke:#1f77b4;stroke-linecap:square;stroke-width:1.5;"/>
    <defs>
     <path d="M 0 3 
C 0.795609 3 1.55874 2.683901 2.12132 2.12132 
C 2.683901 1.55874 3 0.795609 3 0 
C 3 -0.795609 2.683901 -1.55874 2.12132 -2.12132 
C 1.55874 -2.683901 0.795609 -3 0 -3 
C -0.795609 -3 -1.55874 -2.683901 -2.12132 -2.12132 
C -2.683901 -1.55874 -3 -0.795609 -3 0 
C -3 0.795609 -2.683901 1.55874 -2.12132 2.12132 
C -1.55874 2.683901 -0.795609 3 0 3 
z
" id="m132cc3899c" style="stroke:#1f77b4;"/>
    </defs>
    <g clip-path="url(#p76f2304746)">
     <use style="fill:#1f77b4;stroke:#1f77b4;" x="64.965909" xlink:href="#m132cc3899c" y="49.477818"/>
     <use style="fill:#1f77b4;stroke:#1f77b4;" x="70.747913" xlink:href="#m132cc3899c" y="145.479737"/>
     <use style="fill:#1f77b4;stroke:#1f77b4;" x="76.529917" xlink:href="#m132cc3899c" y="129.930647"/>
     <use style="fill:#1f77b4;stroke:#1f77b4;" x="82.31192" xlink:href="#m132cc3899c" y="126.68905"/>
     <use style="fill:#1f77b4;stroke:#1f77b4;" x="88.093924" xlink:href="#m132cc3899c" y="93.403907"/>
     <use style="fill:#1f77b4;stroke:#1f77b4;" x="93.875928" xlink:href="#m132cc3899c" y="154.896877"/>
     <use style="fill:#1f77b4;stroke:#1f77b4;" x="99.657931" xlink:href="#m132cc3899c" y="130.64054"/>
     <use style="fill:#1f77b4;stroke:#1f77b4;" x="105.439935" xlink:href="#m132cc3899c" y="108.08848"/>
     <use style="fill:#1f77b4;stroke:#1f77b4;" x="111.221939" xlink:href="#m132cc3899c" y="97.891553"/>
     <use style="fill:#1f77b4;stroke:#1f77b4;" x="117.003942" xlink:href="#m132cc3899c" y="76.533371"/>
     <use style="fill:#1f77b4;stroke:#1f77b4;" x="122.785946" xlink:href="#m132cc3899c" y="142.814686"/>
     <use style="fill:#1f77b4;stroke:#1f77b4;" x="128.56795" xlink:href="#m132cc3899c" y="105.843104"/>
     <use style="fill:#1f77b4;stroke:#1f77b4;" x="134.349954" xlink:href="#m132cc3899c" y="89.498359"/>
     <use style="fill:#1f77b4;stroke:#1f77b4;" x="140.131957" xlink:href="#m132cc3899c" y="132.131405"/>
     <use style="fill:#1f77b4;stroke:#1f77b4;" x="145.913961" xlink:href="#m132cc3899c" y="132.106086"/>
     <use style="fill:#1f77b4;stroke:#1f77b4;" x="151.695965" xlink:href="#m132cc3899c" y="103.915734"/>
     <use style="fill:#1f77b4;stroke:#1f77b4;" x="157.477968" xlink:href="#m132cc3899c" y="85.916789"/>
     <use style="fill:#1f77b4;stroke:#1f77b4;" x="163.259972" xlink:href="#m132cc3899c" y="124.006428"/>
     <use style="fill:#1f77b4;stroke:#1f77b4;" x="169.041976" xlink:href="#m132cc3899c" y="114.436483"/>
     <use style="fill:#1f77b4;stroke:#1f77b4;" x="174.82398" xlink:href="#m132cc3899c" y="129.089295"/>
     <use style="fill:#1f77b4;stroke:#1f77b4;" x="180.605983" xlink:href="#m132cc3899c" y="76.249335"/>
     <use style="fill:#1f77b4;stroke:#1f77b4;" x="186.387987" xlink:href="#m132cc3899c" y="142.819687"/>
     <use style="fill:#1f77b4;stroke:#1f77b4;" x="192.169991" xlink:href="#m132cc3899c" y="123.655497"/>
     <use style="fill:#1f77b4;stroke:#1f77b4;" x="197.951994" xlink:href="#m132cc3899c" y="195.209565"/>
     <use style="fill:#1f77b4;stroke:#1f77b4;" x="203.733998" xlink:href="#m132cc3899c" y="94.55145"/>
     <use style="fill:#1f77b4;stroke:#1f77b4;" x="209.516002" xlink:href="#m132cc3899c" y="127.979307"/>
     <use style="fill:#1f77b4;stroke:#1f77b4;" x="215.298006" xlink:href="#m132cc3899c" y="128.404423"/>
     <use style="fill:#1f77b4;stroke:#1f77b4;" x="221.080009" xlink:href="#m132cc3899c" y="124.994164"/>
     <use style="fill:#1f77b4;stroke:#1f77b4;" x="226.862013" xlink:href="#m132cc3899c" y="97.131118"/>
     <use style="fill:#1f77b4;stroke:#1f77b4;" x="232.644017" xlink:href="#m132cc3899c" y="127.43236"/>
     <use style="fill:#1f77b4;stroke:#1f77b4;" x="238.42602" xlink:href="#m132cc3899c" y="134.47748"/>
     <use style="fill:#1f77b4;stroke:#1f77b4;" x="244.208024" xlink:href="#m132cc3899c" y="130.359127"/>
     <use style="fill:#1f77b4;stroke:#1f77b4;" x="249.990028" xlink:href="#m132cc3899c" y="110.557284"/>
     <use style="fill:#1f77b4;stroke:#1f77b4;" x="255.772032" xlink:href="#m132cc3899c" y="173.522924"/>
     <use style="fill:#1f77b4;stroke:#1f77b4;" x="261.554035" xlink:href="#m132cc3899c" y="203.034182"/>
     <use style="fill:#1f77b4;stroke:#1f77b4;" x="267.336039" xlink:href="#m132cc3899c" y="118.093321"/>
     <use style="fill:#1f77b4;stroke:#1f77b4;" x="273.118043" xlink:href="#m132cc3899c" y="129.871024"/>
     <use style="fill:#1f77b4;stroke:#1f77b4;" x="278.900046" xlink:href="#m132cc3899c" y="143.73982"/>
     <use style="fill:#1f77b4;stroke:#1f77b4;" x="284.68205" xlink:href="#m132cc3899c" y="121.374336"/>
     <use style="fill:#1f77b4;stroke:#1f77b4;" x="290.464054" xlink:href="#m132cc3899c" y="125.970547"/>
     <use style="fill:#1f77b4;stroke:#1f77b4;" x="296.246058" xlink:href="#m132cc3899c" y="119.601209"/>
     <use style="fill:#1f77b4;stroke:#1f77b4;" x="302.028061" xlink:href="#m132cc3899c" y="141.437516"/>
     <use style="fill:#1f77b4;stroke:#1f77b4;" x="307.810065" xlink:href="#m132cc3899c" y="139.338067"/>
     <use style="fill:#1f77b4;stroke:#1f77b4;" x="313.592069" xlink:href="#m132cc3899c" y="150.316045"/>
     <use style="fill:#1f77b4;stroke:#1f77b4;" x="319.374072" xlink:href="#m132cc3899c" y="126.042138"/>
     <use style="fill:#1f77b4;stroke:#1f77b4;" x="325.156076" xlink:href="#m132cc3899c" y="134.825542"/>
     <use style="fill:#1f77b4;stroke:#1f77b4;" x="330.93808" xlink:href="#m132cc3899c" y="131.230791"/>
     <use style="fill:#1f77b4;stroke:#1f77b4;" x="336.720083" xlink:href="#m132cc3899c" y="123.95431"/>
     <use style="fill:#1f77b4;stroke:#1f77b4;" x="342.502087" xlink:href="#m132cc3899c" y="140.12184"/>
     <use style="fill:#1f77b4;stroke:#1f77b4;" x="348.284091" xlink:href="#m132cc3899c" y="140.724299"/>
    </g>
   </g>
   <g id="line2d_14">
    <path clip-path="url(#p76f2304746)" d="M 64.965909 108.913034 
L 70.747913 109.569489 
L 76.529917 110.225944 
L 82.31192 110.882399 
L 88.093924 111.538854 
L 93.875928 112.195309 
L 99.657931 112.851764 
L 105.439935 113.508219 
L 111.221939 114.164674 
L 117.003942 114.821129 
L 122.785946 115.477584 
L 128.56795 116.134039 
L 134.349954 116.790494 
L 140.131957 117.446949 
L 145.913961 118.103404 
L 151.695965 118.759859 
L 157.477968 119.416314 
L 163.259972 120.072769 
L 169.041976 120.729224 
L 174.82398 121.385679 
L 180.605983 122.042134 
L 186.387987 122.698589 
L 192.169991 123.355044 
L 197.951994 124.011499 
L 203.733998 124.667954 
L 209.516002 125.324409 
L 215.298006 125.980864 
L 221.080009 126.637319 
L 226.862013 127.293774 
L 232.644017 127.950229 
L 238.42602 128.606684 
L 244.208024 129.263139 
L 249.990028 129.919594 
L 255.772032 130.576049 
L 261.554035 131.232504 
L 267.336039 131.888959 
L 273.118043 132.545414 
L 278.900046 133.201869 
L 284.68205 133.858324 
L 290.464054 134.514779 
L 296.246058 135.171234 
L 302.028061 135.827689 
L 307.810065 136.484144 
L 313.592069 137.140599 
L 319.374072 137.797054 
L 325.156076 138.453509 
L 330.93808 139.109964 
L 336.720083 139.766419 
L 342.502087 140.422874 
L 348.284091 141.079328 
" style="fill:none;stroke:#1f77b4;stroke-linecap:square;stroke-width:2;"/>
   </g>
   <g id="patch_3">
    <path d="M 50.8 210.712 
L 50.8 41.8 
" style="fill:none;stroke:#000000;stroke-linecap:square;stroke-linejoin:miter;stroke-width:0.8;"/>
   </g>
   <g id="patch_4">
    <path d="M 362.45 210.712 
L 362.45 41.8 
" style="fill:none;stroke:#000000;stroke-linecap:square;stroke-linejoin:miter;stroke-width:0.8;"/>
   </g>
   <g id="patch_5">
    <path d="M 50.8 210.712 
L 362.45 210.712 
" style="fill:none;stroke:#000000;stroke-linecap:square;stroke-linejoin:miter;stroke-width:0.8;"/>
   </g>
   <g id="patch_6">
    <path d="M 50.8 41.8 
L 362.45 41.8 
" style="fill:none;stroke:#000000;stroke-linecap:square;stroke-linejoin:miter;stroke-width:0.8;"/>
   </g>
   <g id="text_15">
    <!-- Throughput and Difficulty against Measurement-ID  -->
    <defs>
     <path d="M 54.890625 33.015625 
L 54.890625 0 
L 45.90625 0 
L 45.90625 32.71875 
Q 45.90625 40.484375 42.875 44.328125 
Q 39.84375 48.1875 33.796875 48.1875 
Q 26.515625 48.1875 22.3125 43.546875 
Q 18.109375 38.921875 18.109375 30.90625 
L 18.109375 0 
L 9.078125 0 
L 9.078125 75.984375 
L 18.109375 75.984375 
L 18.109375 46.1875 
Q 21.34375 51.125 25.703125 53.5625 
Q 30.078125 56 35.796875 56 
Q 45.21875 56 50.046875 50.171875 
Q 54.890625 44.34375 54.890625 33.015625 
z
" id="DejaVuSans-68"/>
     <path d="M 18.109375 8.203125 
L 18.109375 -20.796875 
L 9.078125 -20.796875 
L 9.078125 54.6875 
L 18.109375 54.6875 
L 18.109375 46.390625 
Q 20.953125 51.265625 25.265625 53.625 
Q 29.59375 56 35.59375 56 
Q 45.5625 56 51.78125 48.09375 
Q 58.015625 40.1875 58.015625 27.296875 
Q 58.015625 14.40625 51.78125 6.484375 
Q 45.5625 -1.421875 35.59375 -1.421875 
Q 29.59375 -1.421875 25.265625 0.953125 
Q 20.953125 3.328125 18.109375 8.203125 
z
M 48.6875 27.296875 
Q 48.6875 37.203125 44.609375 42.84375 
Q 40.53125 48.484375 33.40625 48.484375 
Q 26.265625 48.484375 22.1875 42.84375 
Q 18.109375 37.203125 18.109375 27.296875 
Q 18.109375 17.390625 22.1875 11.75 
Q 26.265625 6.109375 33.40625 6.109375 
Q 40.53125 6.109375 44.609375 11.75 
Q 48.6875 17.390625 48.6875 27.296875 
z
" id="DejaVuSans-70"/>
     <path d="M 37.109375 75.984375 
L 37.109375 68.5 
L 28.515625 68.5 
Q 23.6875 68.5 21.796875 66.546875 
Q 19.921875 64.59375 19.921875 59.515625 
L 19.921875 54.6875 
L 34.71875 54.6875 
L 34.71875 47.703125 
L 19.921875 47.703125 
L 19.921875 0 
L 10.890625 0 
L 10.890625 47.703125 
L 2.296875 47.703125 
L 2.296875 54.6875 
L 10.890625 54.6875 
L 10.890625 58.5 
Q 10.890625 67.625 15.140625 71.796875 
Q 19.390625 75.984375 28.609375 75.984375 
z
" id="DejaVuSans-66"/>
     <path d="M 9.421875 75.984375 
L 18.40625 75.984375 
L 18.40625 0 
L 9.421875 0 
z
" id="DejaVuSans-6c"/>
     <path d="M 32.171875 -5.078125 
Q 28.375 -14.84375 24.75 -17.8125 
Q 21.140625 -20.796875 15.09375 -20.796875 
L 7.90625 -20.796875 
L 7.90625 -13.28125 
L 13.1875 -13.28125 
Q 16.890625 -13.28125 18.9375 -11.515625 
Q 21 -9.765625 23.484375 -3.21875 
L 25.09375 0.875 
L 2.984375 54.6875 
L 12.5 54.6875 
L 29.59375 11.921875 
L 46.6875 54.6875 
L 56.203125 54.6875 
z
" id="DejaVuSans-79"/>
     <path d="M 4.890625 31.390625 
L 31.203125 31.390625 
L 31.203125 23.390625 
L 4.890625 23.390625 
z
" id="DejaVuSans-2d"/>
    </defs>
    <g transform="translate(51.985312 22.362625)scale(0.12 -0.12)">
     <use xlink:href="#DejaVuSans-54"/>
     <use x="61.083984" xlink:href="#DejaVuSans-68"/>
     <use x="124.462891" xlink:href="#DejaVuSans-72"/>
     <use x="165.544922" xlink:href="#DejaVuSans-6f"/>
     <use x="226.726562" xlink:href="#DejaVuSans-75"/>
     <use x="290.105469" xlink:href="#DejaVuSans-67"/>
     <use x="353.582031" xlink:href="#DejaVuSans-68"/>
     <use x="416.960938" xlink:href="#DejaVuSans-70"/>
     <use x="480.4375" xlink:href="#DejaVuSans-75"/>
     <use x="543.816406" xlink:href="#DejaVuSans-74"/>
     <use x="583.025391" xlink:href="#DejaVuSans-20"/>
     <use x="614.8125" xlink:href="#DejaVuSans-61"/>
     <use x="676.091797" xlink:href="#DejaVuSans-6e"/>
     <use x="739.470703" xlink:href="#DejaVuSans-64"/>
     <use x="802.947266" xlink:href="#DejaVuSans-20"/>
     <use x="834.734375" xlink:href="#DejaVuSans-44"/>
     <use x="911.736328" xlink:href="#DejaVuSans-69"/>
     <use x="939.519531" xlink:href="#DejaVuSans-66"/>
     <use x="974.724609" xlink:href="#DejaVuSans-66"/>
     <use x="1009.929688" xlink:href="#DejaVuSans-69"/>
     <use x="1037.712891" xlink:href="#DejaVuSans-63"/>
     <use x="1092.693359" xlink:href="#DejaVuSans-75"/>
     <use x="1156.072266" xlink:href="#DejaVuSans-6c"/>
     <use x="1183.855469" xlink:href="#DejaVuSans-74"/>
     <use x="1223.064453" xlink:href="#DejaVuSans-79"/>
     <use x="1282.244141" xlink:href="#DejaVuSans-20"/>
     <use x="1314.03125" xlink:href="#DejaVuSans-61"/>
     <use x="1375.310547" xlink:href="#DejaVuSans-67"/>
     <use x="1438.787109" xlink:href="#DejaVuSans-61"/>
     <use x="1500.066406" xlink:href="#DejaVuSans-69"/>
     <use x="1527.849609" xlink:href="#DejaVuSans-6e"/>
     <use x="1591.228516" xlink:href="#DejaVuSans-73"/>
     <use x="1643.328125" xlink:href="#DejaVuSans-74"/>
     <use x="1682.537109" xlink:href="#DejaVuSans-20"/>
     <use x="1714.324219" xlink:href="#DejaVuSans-4d"/>
     <use x="1800.603516" xlink:href="#DejaVuSans-65"/>
     <use x="1862.126953" xlink:href="#DejaVuSans-61"/>
     <use x="1923.40625" xlink:href="#DejaVuSans-73"/>
     <use x="1975.505859" xlink:href="#DejaVuSans-75"/>
     <use x="2038.884766" xlink:href="#DejaVuSans-72"/>
     <use x="2079.966797" xlink:href="#DejaVuSans-65"/>
     <use x="2141.490234" xlink:href="#DejaVuSans-6d"/>
     <use x="2238.902344" xlink:href="#DejaVuSans-65"/>
     <use x="2300.425781" xlink:href="#DejaVuSans-6e"/>
     <use x="2363.804688" xlink:href="#DejaVuSans-74"/>
     <use x="2403.013672" xlink:href="#DejaVuSans-2d"/>
     <use x="2439.097656" xlink:href="#DejaVuSans-49"/>
     <use x="2468.589844" xlink:href="#DejaVuSans-44"/>
     <use x="2545.591797" xlink:href="#DejaVuSans-20"/>
    </g>
    <!--  (PoW, difficulty * 1, n=50) -->
    <defs>
     <path d="M 3.328125 72.90625 
L 13.28125 72.90625 
L 28.609375 11.28125 
L 43.890625 72.90625 
L 54.984375 72.90625 
L 70.3125 11.28125 
L 85.59375 72.90625 
L 95.609375 72.90625 
L 77.296875 0 
L 64.890625 0 
L 49.515625 63.28125 
L 33.984375 0 
L 21.578125 0 
z
" id="DejaVuSans-57"/>
     <path d="M 11.71875 12.40625 
L 22.015625 12.40625 
L 22.015625 4 
L 14.015625 -11.625 
L 7.71875 -11.625 
L 11.71875 4 
z
" id="DejaVuSans-2c"/>
     <path d="M 47.015625 60.890625 
L 29.5 51.421875 
L 47.015625 41.890625 
L 44.1875 37.109375 
L 27.78125 47.015625 
L 27.78125 28.609375 
L 22.21875 28.609375 
L 22.21875 47.015625 
L 5.8125 37.109375 
L 2.984375 41.890625 
L 20.515625 51.421875 
L 2.984375 60.890625 
L 5.8125 65.71875 
L 22.21875 55.8125 
L 22.21875 74.21875 
L 27.78125 74.21875 
L 27.78125 55.8125 
L 44.1875 65.71875 
z
" id="DejaVuSans-2a"/>
     <path d="M 10.59375 45.40625 
L 73.1875 45.40625 
L 73.1875 37.203125 
L 10.59375 37.203125 
z
M 10.59375 25.484375 
L 73.1875 25.484375 
L 73.1875 17.1875 
L 10.59375 17.1875 
z
" id="DejaVuSans-3d"/>
    </defs>
    <g transform="translate(126.054375 35.8)scale(0.12 -0.12)">
     <use xlink:href="#DejaVuSans-20"/>
     <use x="31.787109" xlink:href="#DejaVuSans-28"/>
     <use x="70.800781" xlink:href="#DejaVuSans-50"/>
     <use x="131.056641" xlink:href="#DejaVuSans-6f"/>
     <use x="192.238281" xlink:href="#DejaVuSans-57"/>
     <use x="291.115234" xlink:href="#DejaVuSans-2c"/>
     <use x="322.902344" xlink:href="#DejaVuSans-20"/>
     <use x="354.689453" xlink:href="#DejaVuSans-64"/>
     <use x="418.166016" xlink:href="#DejaVuSans-69"/>
     <use x="445.949219" xlink:href="#DejaVuSans-66"/>
     <use x="481.154297" xlink:href="#DejaVuSans-66"/>
     <use x="516.359375" xlink:href="#DejaVuSans-69"/>
     <use x="544.142578" xlink:href="#DejaVuSans-63"/>
     <use x="599.123047" xlink:href="#DejaVuSans-75"/>
     <use x="662.501953" xlink:href="#DejaVuSans-6c"/>
     <use x="690.285156" xlink:href="#DejaVuSans-74"/>
     <use x="729.494141" xlink:href="#DejaVuSans-79"/>
     <use x="788.673828" xlink:href="#DejaVuSans-20"/>
     <use x="820.460938" xlink:href="#DejaVuSans-2a"/>
     <use x="870.460938" xlink:href="#DejaVuSans-20"/>
     <use x="902.248047" xlink:href="#DejaVuSans-31"/>
     <use x="965.871094" xlink:href="#DejaVuSans-2c"/>
     <use x="997.658203" xlink:href="#DejaVuSans-20"/>
     <use x="1029.445312" xlink:href="#DejaVuSans-6e"/>
     <use x="1092.824219" xlink:href="#DejaVuSans-3d"/>
     <use x="1176.613281" xlink:href="#DejaVuSans-35"/>
     <use x="1240.236328" xlink:href="#DejaVuSans-30"/>
     <use x="1303.859375" xlink:href="#DejaVuSans-29"/>
    </g>
   </g>
   <g id="legend_1">
    <g id="patch_7">
     <path d="M 34.307969 269.172525 
L 289.447031 269.172525 
Q 291.447031 269.172525 291.447031 267.172525 
L 291.447031 253.4944 
Q 291.447031 251.4944 289.447031 251.4944 
L 34.307969 251.4944 
Q 32.307969 251.4944 32.307969 253.4944 
L 32.307969 267.172525 
Q 32.307969 269.172525 34.307969 269.172525 
z
" style="fill:#4c4c4c;opacity:0.5;stroke:#4c4c4c;stroke-linejoin:miter;"/>
    </g>
    <g id="patch_8">
     <path d="M 32.307969 267.172525 
L 287.447031 267.172525 
Q 289.447031 267.172525 289.447031 265.172525 
L 289.447031 251.4944 
Q 289.447031 249.4944 287.447031 249.4944 
L 32.307969 249.4944 
Q 30.307969 249.4944 30.307969 251.4944 
L 30.307969 265.172525 
Q 30.307969 267.172525 32.307969 267.172525 
z
" style="fill:#ffffff;stroke:#cccccc;stroke-linejoin:miter;"/>
    </g>
    <g id="line2d_15">
     <path d="M 34.307969 257.592837 
L 54.307969 257.592837 
" style="fill:none;stroke:#1f77b4;stroke-linecap:square;stroke-width:1.5;"/>
    </g>
    <g id="line2d_16">
     <g>
      <use style="fill:#1f77b4;stroke:#1f77b4;" x="44.307969" xlink:href="#m132cc3899c" y="257.592837"/>
     </g>
    </g>
    <g id="text_16">
     <!-- Throughput -->
     <g transform="translate(62.307969 261.092837)scale(0.1 -0.1)">
      <use xlink:href="#DejaVuSans-54"/>
      <use x="61.083984" xlink:href="#DejaVuSans-68"/>
      <use x="124.462891" xlink:href="#DejaVuSans-72"/>
      <use x="165.544922" xlink:href="#DejaVuSans-6f"/>
      <use x="226.726562" xlink:href="#DejaVuSans-75"/>
      <use x="290.105469" xlink:href="#DejaVuSans-67"/>
      <use x="353.582031" xlink:href="#DejaVuSans-68"/>
      <use x="416.960938" xlink:href="#DejaVuSans-70"/>
      <use x="480.4375" xlink:href="#DejaVuSans-75"/>
      <use x="543.816406" xlink:href="#DejaVuSans-74"/>
     </g>
    </g>
    <g id="line2d_17">
     <path d="M 140.609531 257.592837 
L 160.609531 257.592837 
" style="fill:none;stroke:#1f77b4;stroke-linecap:square;stroke-width:2;"/>
    </g>
    <g id="line2d_18"/>
    <g id="text_17">
     <!-- Throughput Regression -->
     <defs>
      <path d="M 44.390625 34.1875 
Q 47.5625 33.109375 50.5625 29.59375 
Q 53.5625 26.078125 56.59375 19.921875 
L 66.609375 0 
L 56 0 
L 46.6875 18.703125 
Q 43.0625 26.03125 39.671875 28.421875 
Q 36.28125 30.8125 30.421875 30.8125 
L 19.671875 30.8125 
L 19.671875 0 
L 9.8125 0 
L 9.8125 72.90625 
L 32.078125 72.90625 
Q 44.578125 72.90625 50.734375 67.671875 
Q 56.890625 62.453125 56.890625 51.90625 
Q 56.890625 45.015625 53.6875 40.46875 
Q 50.484375 35.9375 44.390625 34.1875 
z
M 19.671875 64.796875 
L 19.671875 38.921875 
L 32.078125 38.921875 
Q 39.203125 38.921875 42.84375 42.21875 
Q 46.484375 45.515625 46.484375 51.90625 
Q 46.484375 58.296875 42.84375 61.546875 
Q 39.203125 64.796875 32.078125 64.796875 
z
" id="DejaVuSans-52"/>
     </defs>
     <g transform="translate(168.609531 261.092837)scale(0.1 -0.1)">
      <use xlink:href="#DejaVuSans-54"/>
      <use x="61.083984" xlink:href="#DejaVuSans-68"/>
      <use x="124.462891" xlink:href="#DejaVuSans-72"/>
      <use x="165.544922" xlink:href="#DejaVuSans-6f"/>
      <use x="226.726562" xlink:href="#DejaVuSans-75"/>
      <use x="290.105469" xlink:href="#DejaVuSans-67"/>
      <use x="353.582031" xlink:href="#DejaVuSans-68"/>
      <use x="416.960938" xlink:href="#DejaVuSans-70"/>
      <use x="480.4375" xlink:href="#DejaVuSans-75"/>
      <use x="543.816406" xlink:href="#DejaVuSans-74"/>
      <use x="583.025391" xlink:href="#DejaVuSans-20"/>
      <use x="614.8125" xlink:href="#DejaVuSans-52"/>
      <use x="684.232422" xlink:href="#DejaVuSans-65"/>
      <use x="745.755859" xlink:href="#DejaVuSans-67"/>
      <use x="809.232422" xlink:href="#DejaVuSans-72"/>
      <use x="850.314453" xlink:href="#DejaVuSans-65"/>
      <use x="911.837891" xlink:href="#DejaVuSans-73"/>
      <use x="963.9375" xlink:href="#DejaVuSans-73"/>
      <use x="1016.037109" xlink:href="#DejaVuSans-69"/>
      <use x="1043.820312" xlink:href="#DejaVuSans-6f"/>
      <use x="1105.001953" xlink:href="#DejaVuSans-6e"/>
     </g>
    </g>
   </g>
  </g>
  <g id="axes_2">
   <g id="matplotlib.axis_3">
    <g id="ytick_7">
     <g id="line2d_19">
      <defs>
       <path d="M 0 0 
L 3.5 0 
" id="m9d60555f35" style="stroke:#000000;stroke-width:0.8;"/>
      </defs>
      <g>
       <use style="stroke:#000000;stroke-width:0.8;" x="362.45" xlink:href="#m9d60555f35" y="207.09235"/>
      </g>
     </g>
     <g id="text_18">
      <!-- 500000 -->
      <g transform="translate(369.45 210.891569)scale(0.1 -0.1)">
       <use xlink:href="#DejaVuSans-35"/>
       <use x="63.623047" xlink:href="#DejaVuSans-30"/>
       <use x="127.246094" xlink:href="#DejaVuSans-30"/>
       <use x="190.869141" xlink:href="#DejaVuSans-30"/>
       <use x="254.492188" xlink:href="#DejaVuSans-30"/>
       <use x="318.115234" xlink:href="#DejaVuSans-30"/>
      </g>
     </g>
    </g>
    <g id="ytick_8">
     <g id="line2d_20">
      <g>
       <use style="stroke:#000000;stroke-width:0.8;" x="362.45" xlink:href="#m9d60555f35" y="182.542029"/>
      </g>
     </g>
     <g id="text_19">
      <!-- 550000 -->
      <g transform="translate(369.45 186.341248)scale(0.1 -0.1)">
       <use xlink:href="#DejaVuSans-35"/>
       <use x="63.623047" xlink:href="#DejaVuSans-35"/>
       <use x="127.246094" xlink:href="#DejaVuSans-30"/>
       <use x="190.869141" xlink:href="#DejaVuSans-30"/>
       <use x="254.492188" xlink:href="#DejaVuSans-30"/>
       <use x="318.115234" xlink:href="#DejaVuSans-30"/>
      </g>
     </g>
    </g>
    <g id="ytick_9">
     <g id="line2d_21">
      <g>
       <use style="stroke:#000000;stroke-width:0.8;" x="362.45" xlink:href="#m9d60555f35" y="157.991709"/>
      </g>
     </g>
     <g id="text_20">
      <!-- 600000 -->
      <g transform="translate(369.45 161.790927)scale(0.1 -0.1)">
       <use xlink:href="#DejaVuSans-36"/>
       <use x="63.623047" xlink:href="#DejaVuSans-30"/>
       <use x="127.246094" xlink:href="#DejaVuSans-30"/>
       <use x="190.869141" xlink:href="#DejaVuSans-30"/>
       <use x="254.492188" xlink:href="#DejaVuSans-30"/>
       <use x="318.115234" xlink:href="#DejaVuSans-30"/>
      </g>
     </g>
    </g>
    <g id="ytick_10">
     <g id="line2d_22">
      <g>
       <use style="stroke:#000000;stroke-width:0.8;" x="362.45" xlink:href="#m9d60555f35" y="133.441388"/>
      </g>
     </g>
     <g id="text_21">
      <!-- 650000 -->
      <g transform="translate(369.45 137.240607)scale(0.1 -0.1)">
       <use xlink:href="#DejaVuSans-36"/>
       <use x="63.623047" xlink:href="#DejaVuSans-35"/>
       <use x="127.246094" xlink:href="#DejaVuSans-30"/>
       <use x="190.869141" xlink:href="#DejaVuSans-30"/>
       <use x="254.492188" xlink:href="#DejaVuSans-30"/>
       <use x="318.115234" xlink:href="#DejaVuSans-30"/>
      </g>
     </g>
    </g>
    <g id="ytick_11">
     <g id="line2d_23">
      <g>
       <use style="stroke:#000000;stroke-width:0.8;" x="362.45" xlink:href="#m9d60555f35" y="108.891067"/>
      </g>
     </g>
     <g id="text_22">
      <!-- 700000 -->
      <defs>
       <path d="M 8.203125 72.90625 
L 55.078125 72.90625 
L 55.078125 68.703125 
L 28.609375 0 
L 18.3125 0 
L 43.21875 64.59375 
L 8.203125 64.59375 
z
" id="DejaVuSans-37"/>
      </defs>
      <g transform="translate(369.45 112.690286)scale(0.1 -0.1)">
       <use xlink:href="#DejaVuSans-37"/>
       <use x="63.623047" xlink:href="#DejaVuSans-30"/>
       <use x="127.246094" xlink:href="#DejaVuSans-30"/>
       <use x="190.869141" xlink:href="#DejaVuSans-30"/>
       <use x="254.492188" xlink:href="#DejaVuSans-30"/>
       <use x="318.115234" xlink:href="#DejaVuSans-30"/>
      </g>
     </g>
    </g>
    <g id="ytick_12">
     <g id="line2d_24">
      <g>
       <use style="stroke:#000000;stroke-width:0.8;" x="362.45" xlink:href="#m9d60555f35" y="84.340747"/>
      </g>
     </g>
     <g id="text_23">
      <!-- 750000 -->
      <g transform="translate(369.45 88.139965)scale(0.1 -0.1)">
       <use xlink:href="#DejaVuSans-37"/>
       <use x="63.623047" xlink:href="#DejaVuSans-35"/>
       <use x="127.246094" xlink:href="#DejaVuSans-30"/>
       <use x="190.869141" xlink:href="#DejaVuSans-30"/>
       <use x="254.492188" xlink:href="#DejaVuSans-30"/>
       <use x="318.115234" xlink:href="#DejaVuSans-30"/>
      </g>
     </g>
    </g>
    <g id="ytick_13">
     <g id="line2d_25">
      <g>
       <use style="stroke:#000000;stroke-width:0.8;" x="362.45" xlink:href="#m9d60555f35" y="59.790426"/>
      </g>
     </g>
     <g id="text_24">
      <!-- 800000 -->
      <g transform="translate(369.45 63.589645)scale(0.1 -0.1)">
       <use xlink:href="#DejaVuSans-38"/>
       <use x="63.623047" xlink:href="#DejaVuSans-30"/>
       <use x="127.246094" xlink:href="#DejaVuSans-30"/>
       <use x="190.869141" xlink:href="#DejaVuSans-30"/>
       <use x="254.492188" xlink:href="#DejaVuSans-30"/>
       <use x="318.115234" xlink:href="#DejaVuSans-30"/>
      </g>
     </g>
    </g>
    <g id="text_25">
     <!-- Block Difficulty -->
     <defs>
      <path d="M 19.671875 34.8125 
L 19.671875 8.109375 
L 35.5 8.109375 
Q 43.453125 8.109375 47.28125 11.40625 
Q 51.125 14.703125 51.125 21.484375 
Q 51.125 28.328125 47.28125 31.5625 
Q 43.453125 34.8125 35.5 34.8125 
z
M 19.671875 64.796875 
L 19.671875 42.828125 
L 34.28125 42.828125 
Q 41.5 42.828125 45.03125 45.53125 
Q 48.578125 48.25 48.578125 53.8125 
Q 48.578125 59.328125 45.03125 62.0625 
Q 41.5 64.796875 34.28125 64.796875 
z
M 9.8125 72.90625 
L 35.015625 72.90625 
Q 46.296875 72.90625 52.390625 68.21875 
Q 58.5 63.53125 58.5 54.890625 
Q 58.5 48.1875 55.375 44.234375 
Q 52.25 40.28125 46.1875 39.3125 
Q 53.46875 37.75 57.5 32.78125 
Q 61.53125 27.828125 61.53125 20.40625 
Q 61.53125 10.640625 54.890625 5.3125 
Q 48.25 0 35.984375 0 
L 9.8125 0 
z
" id="DejaVuSans-42"/>
      <path d="M 9.078125 75.984375 
L 18.109375 75.984375 
L 18.109375 31.109375 
L 44.921875 54.6875 
L 56.390625 54.6875 
L 27.390625 29.109375 
L 57.625 0 
L 45.90625 0 
L 18.109375 26.703125 
L 18.109375 0 
L 9.078125 0 
z
" id="DejaVuSans-6b"/>
     </defs>
     <g transform="translate(419.223437 163.7435)rotate(-90)scale(0.1 -0.1)">
      <use xlink:href="#DejaVuSans-42"/>
      <use x="68.603516" xlink:href="#DejaVuSans-6c"/>
      <use x="96.386719" xlink:href="#DejaVuSans-6f"/>
      <use x="157.568359" xlink:href="#DejaVuSans-63"/>
      <use x="212.548828" xlink:href="#DejaVuSans-6b"/>
      <use x="270.458984" xlink:href="#DejaVuSans-20"/>
      <use x="302.246094" xlink:href="#DejaVuSans-44"/>
      <use x="379.248047" xlink:href="#DejaVuSans-69"/>
      <use x="407.03125" xlink:href="#DejaVuSans-66"/>
      <use x="442.236328" xlink:href="#DejaVuSans-66"/>
      <use x="477.441406" xlink:href="#DejaVuSans-69"/>
      <use x="505.224609" xlink:href="#DejaVuSans-63"/>
      <use x="560.205078" xlink:href="#DejaVuSans-75"/>
      <use x="623.583984" xlink:href="#DejaVuSans-6c"/>
      <use x="651.367188" xlink:href="#DejaVuSans-74"/>
      <use x="690.576172" xlink:href="#DejaVuSans-79"/>
     </g>
    </g>
   </g>
   <g id="line2d_26">
    <path clip-path="url(#p76f2304746)" d="M 64.965909 203.034182 
L 70.747913 199.729709 
L 76.529917 198.371094 
L 82.31192 195.507054 
L 88.093924 193.747287 
L 93.875928 189.552128 
L 99.657931 186.71853 
L 105.439935 184.637645 
L 111.221939 182.803736 
L 117.003942 180.692899 
L 122.785946 177.896617 
L 128.56795 175.071858 
L 134.349954 172.354137 
L 140.131957 169.471929 
L 145.913961 167.256018 
L 151.695965 164.742556 
L 157.477968 162.06608 
L 163.259972 158.504319 
L 169.041976 156.057634 
L 174.82398 153.590327 
L 180.605983 151.397001 
L 186.387987 147.854881 
L 192.169991 145.619329 
L 197.951994 136.509687 
L 203.733998 134.035015 
L 209.516002 131.385053 
L 215.298006 128.396788 
L 221.080009 125.69969 
L 226.862013 123.942378 
L 232.644017 120.561799 
L 238.42602 117.145867 
L 244.208024 113.694583 
L 249.990028 111.040693 
L 255.772032 105.166293 
L 261.554035 93.459718 
L 267.336039 91.70437 
L 273.118043 87.991379 
L 278.900046 85.315885 
L 284.68205 82.259861 
L 290.464054 79.723813 
L 296.246058 77.353725 
L 302.028061 74.416034 
L 307.810065 71.454774 
L 313.592069 68.470437 
L 319.374072 65.273985 
L 325.156076 61.861 
L 330.93808 58.225097 
L 336.720083 55.524071 
L 342.502087 52.804387 
L 348.284091 49.477818 
" style="fill:none;stroke:#7f7f7f;stroke-linecap:square;stroke-width:1.5;"/>
    <defs>
     <path d="M 0 3 
C 0.795609 3 1.55874 2.683901 2.12132 2.12132 
C 2.683901 1.55874 3 0.795609 3 0 
C 3 -0.795609 2.683901 -1.55874 2.12132 -2.12132 
C 1.55874 -2.683901 0.795609 -3 0 -3 
C -0.795609 -3 -1.55874 -2.683901 -2.12132 -2.12132 
C -2.683901 -1.55874 -3 -0.795609 -3 0 
C -3 0.795609 -2.683901 1.55874 -2.12132 2.12132 
C -1.55874 2.683901 -0.795609 3 0 3 
z
" id="m4cd714c20d" style="stroke:#7f7f7f;"/>
    </defs>
    <g clip-path="url(#p76f2304746)">
     <use style="fill:#7f7f7f;stroke:#7f7f7f;" x="64.965909" xlink:href="#m4cd714c20d" y="203.034182"/>
     <use style="fill:#7f7f7f;stroke:#7f7f7f;" x="70.747913" xlink:href="#m4cd714c20d" y="199.729709"/>
     <use style="fill:#7f7f7f;stroke:#7f7f7f;" x="76.529917" xlink:href="#m4cd714c20d" y="198.371094"/>
     <use style="fill:#7f7f7f;stroke:#7f7f7f;" x="82.31192" xlink:href="#m4cd714c20d" y="195.507054"/>
     <use style="fill:#7f7f7f;stroke:#7f7f7f;" x="88.093924" xlink:href="#m4cd714c20d" y="193.747287"/>
     <use style="fill:#7f7f7f;stroke:#7f7f7f;" x="93.875928" xlink:href="#m4cd714c20d" y="189.552128"/>
     <use style="fill:#7f7f7f;stroke:#7f7f7f;" x="99.657931" xlink:href="#m4cd714c20d" y="186.71853"/>
     <use style="fill:#7f7f7f;stroke:#7f7f7f;" x="105.439935" xlink:href="#m4cd714c20d" y="184.637645"/>
     <use style="fill:#7f7f7f;stroke:#7f7f7f;" x="111.221939" xlink:href="#m4cd714c20d" y="182.803736"/>
     <use style="fill:#7f7f7f;stroke:#7f7f7f;" x="117.003942" xlink:href="#m4cd714c20d" y="180.692899"/>
     <use style="fill:#7f7f7f;stroke:#7f7f7f;" x="122.785946" xlink:href="#m4cd714c20d" y="177.896617"/>
     <use style="fill:#7f7f7f;stroke:#7f7f7f;" x="128.56795" xlink:href="#m4cd714c20d" y="175.071858"/>
     <use style="fill:#7f7f7f;stroke:#7f7f7f;" x="134.349954" xlink:href="#m4cd714c20d" y="172.354137"/>
     <use style="fill:#7f7f7f;stroke:#7f7f7f;" x="140.131957" xlink:href="#m4cd714c20d" y="169.471929"/>
     <use style="fill:#7f7f7f;stroke:#7f7f7f;" x="145.913961" xlink:href="#m4cd714c20d" y="167.256018"/>
     <use style="fill:#7f7f7f;stroke:#7f7f7f;" x="151.695965" xlink:href="#m4cd714c20d" y="164.742556"/>
     <use style="fill:#7f7f7f;stroke:#7f7f7f;" x="157.477968" xlink:href="#m4cd714c20d" y="162.06608"/>
     <use style="fill:#7f7f7f;stroke:#7f7f7f;" x="163.259972" xlink:href="#m4cd714c20d" y="158.504319"/>
     <use style="fill:#7f7f7f;stroke:#7f7f7f;" x="169.041976" xlink:href="#m4cd714c20d" y="156.057634"/>
     <use style="fill:#7f7f7f;stroke:#7f7f7f;" x="174.82398" xlink:href="#m4cd714c20d" y="153.590327"/>
     <use style="fill:#7f7f7f;stroke:#7f7f7f;" x="180.605983" xlink:href="#m4cd714c20d" y="151.397001"/>
     <use style="fill:#7f7f7f;stroke:#7f7f7f;" x="186.387987" xlink:href="#m4cd714c20d" y="147.854881"/>
     <use style="fill:#7f7f7f;stroke:#7f7f7f;" x="192.169991" xlink:href="#m4cd714c20d" y="145.619329"/>
     <use style="fill:#7f7f7f;stroke:#7f7f7f;" x="197.951994" xlink:href="#m4cd714c20d" y="136.509687"/>
     <use style="fill:#7f7f7f;stroke:#7f7f7f;" x="203.733998" xlink:href="#m4cd714c20d" y="134.035015"/>
     <use style="fill:#7f7f7f;stroke:#7f7f7f;" x="209.516002" xlink:href="#m4cd714c20d" y="131.385053"/>
     <use style="fill:#7f7f7f;stroke:#7f7f7f;" x="215.298006" xlink:href="#m4cd714c20d" y="128.396788"/>
     <use style="fill:#7f7f7f;stroke:#7f7f7f;" x="221.080009" xlink:href="#m4cd714c20d" y="125.69969"/>
     <use style="fill:#7f7f7f;stroke:#7f7f7f;" x="226.862013" xlink:href="#m4cd714c20d" y="123.942378"/>
     <use style="fill:#7f7f7f;stroke:#7f7f7f;" x="232.644017" xlink:href="#m4cd714c20d" y="120.561799"/>
     <use style="fill:#7f7f7f;stroke:#7f7f7f;" x="238.42602" xlink:href="#m4cd714c20d" y="117.145867"/>
     <use style="fill:#7f7f7f;stroke:#7f7f7f;" x="244.208024" xlink:href="#m4cd714c20d" y="113.694583"/>
     <use style="fill:#7f7f7f;stroke:#7f7f7f;" x="249.990028" xlink:href="#m4cd714c20d" y="111.040693"/>
     <use style="fill:#7f7f7f;stroke:#7f7f7f;" x="255.772032" xlink:href="#m4cd714c20d" y="105.166293"/>
     <use style="fill:#7f7f7f;stroke:#7f7f7f;" x="261.554035" xlink:href="#m4cd714c20d" y="93.459718"/>
     <use style="fill:#7f7f7f;stroke:#7f7f7f;" x="267.336039" xlink:href="#m4cd714c20d" y="91.70437"/>
     <use style="fill:#7f7f7f;stroke:#7f7f7f;" x="273.118043" xlink:href="#m4cd714c20d" y="87.991379"/>
     <use style="fill:#7f7f7f;stroke:#7f7f7f;" x="278.900046" xlink:href="#m4cd714c20d" y="85.315885"/>
     <use style="fill:#7f7f7f;stroke:#7f7f7f;" x="284.68205" xlink:href="#m4cd714c20d" y="82.259861"/>
     <use style="fill:#7f7f7f;stroke:#7f7f7f;" x="290.464054" xlink:href="#m4cd714c20d" y="79.723813"/>
     <use style="fill:#7f7f7f;stroke:#7f7f7f;" x="296.246058" xlink:href="#m4cd714c20d" y="77.353725"/>
     <use style="fill:#7f7f7f;stroke:#7f7f7f;" x="302.028061" xlink:href="#m4cd714c20d" y="74.416034"/>
     <use style="fill:#7f7f7f;stroke:#7f7f7f;" x="307.810065" xlink:href="#m4cd714c20d" y="71.454774"/>
     <use style="fill:#7f7f7f;stroke:#7f7f7f;" x="313.592069" xlink:href="#m4cd714c20d" y="68.470437"/>
     <use style="fill:#7f7f7f;stroke:#7f7f7f;" x="319.374072" xlink:href="#m4cd714c20d" y="65.273985"/>
     <use style="fill:#7f7f7f;stroke:#7f7f7f;" x="325.156076" xlink:href="#m4cd714c20d" y="61.861"/>
     <use style="fill:#7f7f7f;stroke:#7f7f7f;" x="330.93808" xlink:href="#m4cd714c20d" y="58.225097"/>
     <use style="fill:#7f7f7f;stroke:#7f7f7f;" x="336.720083" xlink:href="#m4cd714c20d" y="55.524071"/>
     <use style="fill:#7f7f7f;stroke:#7f7f7f;" x="342.502087" xlink:href="#m4cd714c20d" y="52.804387"/>
     <use style="fill:#7f7f7f;stroke:#7f7f7f;" x="348.284091" xlink:href="#m4cd714c20d" y="49.477818"/>
    </g>
   </g>
   <g id="patch_9">
    <path d="M 50.8 210.712 
L 50.8 41.8 
" style="fill:none;stroke:#000000;stroke-linecap:square;stroke-linejoin:miter;stroke-width:0.8;"/>
   </g>
   <g id="patch_10">
    <path d="M 362.45 210.712 
L 362.45 41.8 
" style="fill:none;stroke:#000000;stroke-linecap:square;stroke-linejoin:miter;stroke-width:0.8;"/>
   </g>
   <g id="patch_11">
    <path d="M 50.8 210.712 
L 362.45 210.712 
" style="fill:none;stroke:#000000;stroke-linecap:square;stroke-linejoin:miter;stroke-width:0.8;"/>
   </g>
   <g id="patch_12">
    <path d="M 50.8 41.8 
L 362.45 41.8 
" style="fill:none;stroke:#000000;stroke-linecap:square;stroke-linejoin:miter;stroke-width:0.8;"/>
   </g>
   <g id="legend_2">
    <g id="patch_13">
     <path d="M 326.075 269.172525 
L 402.825 269.172525 
Q 404.825 269.172525 404.825 267.172525 
L 404.825 253.4944 
Q 404.825 251.4944 402.825 251.4944 
L 326.075 251.4944 
Q 324.075 251.4944 324.075 253.4944 
L 324.075 267.172525 
Q 324.075 269.172525 326.075 269.172525 
z
" style="fill:#4c4c4c;opacity:0.5;stroke:#4c4c4c;stroke-linejoin:miter;"/>
    </g>
    <g id="patch_14">
     <path d="M 324.075 267.172525 
L 400.825 267.172525 
Q 402.825 267.172525 402.825 265.172525 
L 402.825 251.4944 
Q 402.825 249.4944 400.825 249.4944 
L 324.075 249.4944 
Q 322.075 249.4944 322.075 251.4944 
L 322.075 265.172525 
Q 322.075 267.172525 324.075 267.172525 
z
" style="fill:#ffffff;stroke:#cccccc;stroke-linejoin:miter;"/>
    </g>
    <g id="line2d_27">
     <path d="M 326.075 257.592837 
L 346.075 257.592837 
" style="fill:none;stroke:#7f7f7f;stroke-linecap:square;stroke-width:1.5;"/>
    </g>
    <g id="line2d_28">
     <g>
      <use style="fill:#7f7f7f;stroke:#7f7f7f;" x="336.075" xlink:href="#m4cd714c20d" y="257.592837"/>
     </g>
    </g>
    <g id="text_26">
     <!-- Difficulty -->
     <g transform="translate(354.075 261.092837)scale(0.1 -0.1)">
      <use xlink:href="#DejaVuSans-44"/>
      <use x="77.001953" xlink:href="#DejaVuSans-69"/>
      <use x="104.785156" xlink:href="#DejaVuSans-66"/>
      <use x="139.990234" xlink:href="#DejaVuSans-66"/>
      <use x="175.195312" xlink:href="#DejaVuSans-69"/>
      <use x="202.978516" xlink:href="#DejaVuSans-63"/>
      <use x="257.958984" xlink:href="#DejaVuSans-75"/>
      <use x="321.337891" xlink:href="#DejaVuSans-6c"/>
      <use x="349.121094" xlink:href="#DejaVuSans-74"/>
      <use x="388.330078" xlink:href="#DejaVuSans-79"/>
     </g>
    </g>
   </g>
  </g>
 </g>
 <defs>
  <clipPath id="p76f2304746">
   <rect height="168.912" width="311.65" x="50.8" y="41.8"/>
  </clipPath>
 </defs>
</svg>
